<?xml version="1.0" encoding="UTF-8" standalone="no"?>
<!DOCTYPE svg PUBLIC "-//W3C//DTD SVG 1.1//EN"
 "http://www.w3.org/Graphics/SVG/1.1/DTD/svg11.dtd">
<!-- Generated by graphviz version 2.44.1 (20200629.0846)
 -->
<!-- Title: dependencies Pages: 1 -->
<svg width="3011pt" height="284pt"
 viewBox="0.00 0.00 3011.00 284.00" xmlns="http://www.w3.org/2000/svg" xmlns:xlink="http://www.w3.org/1999/xlink">
<g id="graph0" class="graph" transform="scale(1 1) rotate(0) translate(4 280)">
<title>dependencies</title>
<polygon fill="white" stroke="transparent" points="-4,4 -4,-280 3007,-280 3007,4 -4,4"/>
<text text-anchor="start" x="1480.51" y="-42.4" font-family="sans-serif" font-weight="bold" font-size="14.00">Legend</text>
<polygon fill="#ffffb3" stroke="transparent" points="1267.5,-10 1267.5,-30 1287.5,-30 1287.5,-10 1267.5,-10"/>
<text text-anchor="start" x="1291.13" y="-15.4" font-family="sans-serif" font-size="14.00"> &#160;Declarations</text>
<polygon fill="#8dd3c7" stroke="transparent" points="1380.5,-10 1380.5,-30 1400.5,-30 1400.5,-10 1380.5,-10"/>
<text text-anchor="start" x="1404.23" y="-15.4" font-family="sans-serif" font-size="14.00"> &#160;Module</text>
<polygon fill="#80b1d3" stroke="transparent" points="1466.5,-10 1466.5,-30 1486.5,-30 1486.5,-10 1466.5,-10"/>
<text text-anchor="start" x="1490.28" y="-15.4" font-family="sans-serif" font-size="14.00"> &#160;Bootstrap</text>
<polygon fill="#fdb462" stroke="transparent" points="1563.5,-10 1563.5,-30 1583.5,-30 1583.5,-10 1563.5,-10"/>
<text text-anchor="start" x="1587.17" y="-15.4" font-family="sans-serif" font-size="14.00"> &#160;Providers</text>
<polygon fill="#fb8072" stroke="transparent" points="1659.5,-10 1659.5,-30 1679.5,-30 1679.5,-10 1659.5,-10"/>
<text text-anchor="start" x="1683.23" y="-15.4" font-family="sans-serif" font-size="14.00"> &#160;Exports</text>
<g id="clust1" class="cluster">
<title>cluster_SharedModule</title>
<polygon fill="none" stroke="black" stroke-dasharray="1,5" points="8,-70 8,-268 2995,-268 2995,-70 8,-70"/>
</g>
<g id="clust10" class="cluster">
<title>cluster_SharedModule_exports</title>
<polygon fill="none" stroke="black" points="1005,-208 1005,-260 1907,-260 1907,-208 1005,-208"/>
</g>
<g id="clust2" class="cluster">
<title>cluster_SharedModule_declarations</title>
<polygon fill="none" stroke="black" points="2104,-78 2104,-130 2987,-130 2987,-78 2104,-78"/>
</g>
<g id="clust9" class="cluster">
<title>cluster_SharedModule_imports</title>
<polygon fill="none" stroke="black" points="196,-78 196,-130 2096,-130 2096,-78 196,-78"/>
</g>
<g id="clust12" class="cluster">
<title>cluster_SharedModule_providers</title>
<polygon fill="none" stroke="black" points="16,-78 16,-130 188,-130 188,-78 16,-78"/>
</g>
<!-- HeaderComponent -->
<g id="node1" class="node">
<title>HeaderComponent</title>
<polygon fill="#ffffb3" stroke="black" points="2978.74,-122 2857.26,-122 2857.26,-86 2978.74,-86 2978.74,-122"/>
<text text-anchor="middle" x="2918" y="-99.8" font-family="Times,serif" font-size="14.00">HeaderComponent</text>
</g>
<!-- SharedModule -->
<g id="node7" class="node">
<title>SharedModule</title>
<polygon fill="#8dd3c7" stroke="black" points="1515.42,-187 1512.42,-191 1491.42,-191 1488.42,-187 1416.58,-187 1416.58,-151 1515.42,-151 1515.42,-187"/>
<text text-anchor="middle" x="1466" y="-164.8" font-family="Times,serif" font-size="14.00">SharedModule</text>
</g>
<!-- HeaderComponent&#45;&gt;SharedModule -->
<g id="edge1" class="edge">
<title>HeaderComponent&#45;&gt;SharedModule</title>
<path fill="none" stroke="black" d="M2918,-122.16C2918,-144.35 2918,-179 2918,-179 2918,-179 1525.56,-179 1525.56,-179"/>
<polygon fill="black" stroke="black" points="1525.56,-175.5 1515.56,-179 1525.56,-182.5 1525.56,-175.5"/>
</g>
<!-- SidebarComponent -->
<g id="node2" class="node">
<title>SidebarComponent</title>
<polygon fill="#ffffb3" stroke="black" points="2839.1,-122 2714.9,-122 2714.9,-86 2839.1,-86 2839.1,-122"/>
<text text-anchor="middle" x="2777" y="-99.8" font-family="Times,serif" font-size="14.00">SidebarComponent</text>
</g>
<!-- SidebarComponent&#45;&gt;SharedModule -->
<g id="edge2" class="edge">
<title>SidebarComponent&#45;&gt;SharedModule</title>
<path fill="none" stroke="black" d="M2777,-122.17C2777,-143.5 2777,-176 2777,-176 2777,-176 1525.4,-176 1525.4,-176"/>
<polygon fill="black" stroke="black" points="1525.4,-172.5 1515.4,-176 1525.4,-179.5 1525.4,-172.5"/>
</g>
<!-- FooterComponent -->
<g id="node3" class="node">
<title>FooterComponent</title>
<polygon fill="#ffffb3" stroke="black" points="2696.88,-122 2579.12,-122 2579.12,-86 2696.88,-86 2696.88,-122"/>
<text text-anchor="middle" x="2638" y="-99.8" font-family="Times,serif" font-size="14.00">FooterComponent</text>
</g>
<!-- FooterComponent&#45;&gt;SharedModule -->
<g id="edge3" class="edge">
<title>FooterComponent&#45;&gt;SharedModule</title>
<path fill="none" stroke="black" d="M2638,-122.03C2638,-142.77 2638,-174 2638,-174 2638,-174 1525.24,-174 1525.24,-174"/>
<polygon fill="black" stroke="black" points="1525.24,-170.5 1515.24,-174 1525.24,-177.5 1525.24,-170.5"/>
</g>
<!-- ProgressSpinnerComponent -->
<g id="node4" class="node">
<title>ProgressSpinnerComponent</title>
<polygon fill="#ffffb3" stroke="black" points="2561.59,-122 2388.41,-122 2388.41,-86 2561.59,-86 2561.59,-122"/>
<text text-anchor="middle" x="2475" y="-99.8" font-family="Times,serif" font-size="14.00">ProgressSpinnerComponent</text>
</g>
<!-- ProgressSpinnerComponent&#45;&gt;SharedModule -->
<g id="edge4" class="edge">
<title>ProgressSpinnerComponent&#45;&gt;SharedModule</title>
<path fill="none" stroke="black" d="M2475,-122.31C2475,-142.15 2475,-171 2475,-171 2475,-171 1525.35,-171 1525.35,-171"/>
<polygon fill="black" stroke="black" points="1525.35,-167.5 1515.35,-171 1525.35,-174.5 1525.35,-167.5"/>
</g>
<!-- CardComponent -->
<g id="node5" class="node">
<title>CardComponent</title>
<polygon fill="#ffffb3" stroke="black" points="2370.05,-122 2261.95,-122 2261.95,-86 2370.05,-86 2370.05,-122"/>
<text text-anchor="middle" x="2316" y="-99.8" font-family="Times,serif" font-size="14.00">CardComponent</text>
</g>
<!-- CardComponent&#45;&gt;SharedModule -->
<g id="edge5" class="edge">
<title>CardComponent&#45;&gt;SharedModule</title>
<path fill="none" stroke="black" d="M2316,-122.17C2316,-141.09 2316,-168 2316,-168 2316,-168 1525.37,-168 1525.37,-168"/>
<polygon fill="black" stroke="black" points="1525.37,-164.5 1515.37,-168 1525.37,-171.5 1525.37,-164.5"/>
</g>
<!-- CarasoulComponent -->
<g id="node6" class="node">
<title>CarasoulComponent</title>
<polygon fill="#ffffb3" stroke="black" points="2243.59,-122 2112.41,-122 2112.41,-86 2243.59,-86 2243.59,-122"/>
<text text-anchor="middle" x="2178" y="-99.8" font-family="Times,serif" font-size="14.00">CarasoulComponent</text>
</g>
<!-- CarasoulComponent&#45;&gt;SharedModule -->
<g id="edge6" class="edge">
<title>CarasoulComponent&#45;&gt;SharedModule</title>
<path fill="none" stroke="black" d="M2178,-122.3C2178,-140.27 2178,-165 2178,-165 2178,-165 1525.22,-165 1525.22,-165"/>
<polygon fill="black" stroke="black" points="1525.22,-161.5 1515.22,-165 1525.22,-168.5 1525.22,-161.5"/>
</g>
<!-- HeaderComponent  -->
<g id="node22" class="node">
<title>HeaderComponent </title>
<polygon fill="#fb8072" stroke="black" points="1898.74,-252 1773.26,-252 1773.26,-216 1898.74,-216 1898.74,-252"/>
<text text-anchor="middle" x="1836" y="-229.8" font-family="Times,serif" font-size="14.00">HeaderComponent </text>
</g>
<!-- SharedModule&#45;&gt;HeaderComponent  -->
<g id="edge21" class="edge">
<title>SharedModule&#45;&gt;HeaderComponent </title>
<path fill="none" stroke="black" stroke-dasharray="5,2" d="M1515.21,-182C1606.91,-182 1794.71,-182 1794.71,-182 1794.71,-182 1794.71,-205.81 1794.71,-205.81"/>
<polygon fill="black" stroke="black" points="1791.21,-205.81 1794.71,-215.81 1798.21,-205.81 1791.21,-205.81"/>
</g>
<!-- SidebarComponent  -->
<g id="node23" class="node">
<title>SidebarComponent </title>
<polygon fill="#fb8072" stroke="black" points="1755.6,-252 1628.4,-252 1628.4,-216 1755.6,-216 1755.6,-252"/>
<text text-anchor="middle" x="1692" y="-229.8" font-family="Times,serif" font-size="14.00">SidebarComponent </text>
</g>
<!-- SharedModule&#45;&gt;SidebarComponent  -->
<g id="edge22" class="edge">
<title>SharedModule&#45;&gt;SidebarComponent </title>
<path fill="none" stroke="black" stroke-dasharray="5,2" d="M1515.63,-185C1570.49,-185 1651.21,-185 1651.21,-185 1651.21,-185 1651.21,-205.75 1651.21,-205.75"/>
<polygon fill="black" stroke="black" points="1647.71,-205.75 1651.21,-215.75 1654.71,-205.75 1647.71,-205.75"/>
</g>
<!-- FooterComponent  -->
<g id="node24" class="node">
<title>FooterComponent </title>
<polygon fill="#fb8072" stroke="black" points="1610.88,-252 1489.12,-252 1489.12,-216 1610.88,-216 1610.88,-252"/>
<text text-anchor="middle" x="1550" y="-229.8" font-family="Times,serif" font-size="14.00">FooterComponent </text>
</g>
<!-- SharedModule&#45;&gt;FooterComponent  -->
<g id="edge23" class="edge">
<title>SharedModule&#45;&gt;FooterComponent </title>
<path fill="none" stroke="black" stroke-dasharray="5,2" d="M1502.26,-187.11C1502.26,-187.11 1502.26,-205.99 1502.26,-205.99"/>
<polygon fill="black" stroke="black" points="1498.76,-205.99 1502.26,-215.99 1505.76,-205.99 1498.76,-205.99"/>
</g>
<!-- ProgressSpinnerComponent  -->
<g id="node25" class="node">
<title>ProgressSpinnerComponent </title>
<polygon fill="#fb8072" stroke="black" points="1471.09,-252 1294.91,-252 1294.91,-216 1471.09,-216 1471.09,-252"/>
<text text-anchor="middle" x="1383" y="-229.8" font-family="Times,serif" font-size="14.00">ProgressSpinnerComponent </text>
</g>
<!-- SharedModule&#45;&gt;ProgressSpinnerComponent  -->
<g id="edge24" class="edge">
<title>SharedModule&#45;&gt;ProgressSpinnerComponent </title>
<path fill="none" stroke="black" stroke-dasharray="5,2" d="M1444.04,-187.11C1444.04,-187.11 1444.04,-205.99 1444.04,-205.99"/>
<polygon fill="black" stroke="black" points="1440.54,-205.99 1444.04,-215.99 1447.54,-205.99 1440.54,-205.99"/>
</g>
<!-- CardComponent  -->
<g id="node26" class="node">
<title>CardComponent </title>
<polygon fill="#fb8072" stroke="black" points="1277.04,-252 1164.96,-252 1164.96,-216 1277.04,-216 1277.04,-252"/>
<text text-anchor="middle" x="1221" y="-229.8" font-family="Times,serif" font-size="14.00">CardComponent </text>
</g>
<!-- SharedModule&#45;&gt;CardComponent  -->
<g id="edge25" class="edge">
<title>SharedModule&#45;&gt;CardComponent </title>
<path fill="none" stroke="black" stroke-dasharray="5,2" d="M1416.67,-185C1358.16,-185 1268.48,-185 1268.48,-185 1268.48,-185 1268.48,-205.75 1268.48,-205.75"/>
<polygon fill="black" stroke="black" points="1264.98,-205.75 1268.48,-215.75 1271.98,-205.75 1264.98,-205.75"/>
</g>
<!-- CarasoulComponent  -->
<g id="node27" class="node">
<title>CarasoulComponent </title>
<polygon fill="#fb8072" stroke="black" points="1147.09,-252 1012.91,-252 1012.91,-216 1147.09,-216 1147.09,-252"/>
<text text-anchor="middle" x="1080" y="-229.8" font-family="Times,serif" font-size="14.00">CarasoulComponent </text>
</g>
<!-- SharedModule&#45;&gt;CarasoulComponent  -->
<g id="edge26" class="edge">
<title>SharedModule&#45;&gt;CarasoulComponent </title>
<path fill="none" stroke="black" stroke-dasharray="5,2" d="M1416.56,-182C1326.03,-182 1142.81,-182 1142.81,-182 1142.81,-182 1142.81,-205.81 1142.81,-205.81"/>
<polygon fill="black" stroke="black" points="1139.31,-205.81 1142.81,-215.81 1146.31,-205.81 1139.31,-205.81"/>
</g>
<!-- CommonModule -->
<g id="node8" class="node">
<title>CommonModule</title>
<polygon fill="#8dd3c7" stroke="black" points="2087.67,-122 2084.67,-126 2063.67,-126 2060.67,-122 1976.33,-122 1976.33,-86 2087.67,-86 2087.67,-122"/>
<text text-anchor="middle" x="2032" y="-99.8" font-family="Times,serif" font-size="14.00">CommonModule</text>
</g>
<!-- CommonModule&#45;&gt;SharedModule -->
<g id="edge7" class="edge">
<title>CommonModule&#45;&gt;SharedModule</title>
<path fill="none" stroke="black" d="M2032,-122.02C2032,-139.37 2032,-163 2032,-163 2032,-163 1525.24,-163 1525.24,-163"/>
<polygon fill="black" stroke="black" points="1525.24,-159.5 1515.24,-163 1525.24,-166.5 1525.24,-159.5"/>
</g>
<!-- MatDividerModule -->
<g id="node9" class="node">
<title>MatDividerModule</title>
<polygon fill="#8dd3c7" stroke="black" points="1958.36,-122 1955.36,-126 1934.36,-126 1931.36,-122 1833.64,-122 1833.64,-86 1958.36,-86 1958.36,-122"/>
<text text-anchor="middle" x="1896" y="-99.8" font-family="Times,serif" font-size="14.00">MatDividerModule</text>
</g>
<!-- MatDividerModule&#45;&gt;SharedModule -->
<g id="edge8" class="edge">
<title>MatDividerModule&#45;&gt;SharedModule</title>
<path fill="none" stroke="black" d="M1866.1,-122.03C1866.1,-138.4 1866.1,-160 1866.1,-160 1866.1,-160 1525.46,-160 1525.46,-160"/>
<polygon fill="black" stroke="black" points="1525.46,-156.5 1515.46,-160 1525.46,-163.5 1525.46,-156.5"/>
</g>
<!-- FlexLayoutModule -->
<g id="node10" class="node">
<title>FlexLayoutModule</title>
<polygon fill="#8dd3c7" stroke="black" points="1816.1,-122 1813.1,-126 1792.1,-126 1789.1,-122 1691.9,-122 1691.9,-86 1816.1,-86 1816.1,-122"/>
<text text-anchor="middle" x="1754" y="-99.8" font-family="Times,serif" font-size="14.00">FlexLayoutModule</text>
</g>
<!-- FlexLayoutModule&#45;&gt;SharedModule -->
<g id="edge9" class="edge">
<title>FlexLayoutModule&#45;&gt;SharedModule</title>
<path fill="none" stroke="black" d="M1723.88,-122.24C1723.88,-137.57 1723.88,-157 1723.88,-157 1723.88,-157 1525.42,-157 1525.42,-157"/>
<polygon fill="black" stroke="black" points="1525.42,-153.5 1515.42,-157 1525.42,-160.5 1525.42,-153.5"/>
</g>
<!-- MatToolbarModule -->
<g id="node11" class="node">
<title>MatToolbarModule</title>
<polygon fill="#8dd3c7" stroke="black" points="1674.42,-122 1671.42,-126 1650.42,-126 1647.42,-122 1547.58,-122 1547.58,-86 1674.42,-86 1674.42,-122"/>
<text text-anchor="middle" x="1611" y="-99.8" font-family="Times,serif" font-size="14.00">MatToolbarModule</text>
</g>
<!-- MatToolbarModule&#45;&gt;SharedModule -->
<g id="edge10" class="edge">
<title>MatToolbarModule&#45;&gt;SharedModule</title>
<path fill="none" stroke="black" d="M1579.24,-122.05C1579.24,-136.37 1579.24,-154 1579.24,-154 1579.24,-154 1525.34,-154 1525.34,-154"/>
<polygon fill="black" stroke="black" points="1525.34,-150.5 1515.34,-154 1525.34,-157.5 1525.34,-150.5"/>
</g>
<!-- MatSidenavModule -->
<g id="node12" class="node">
<title>MatSidenavModule</title>
<polygon fill="#8dd3c7" stroke="black" points="1529.7,-122 1526.7,-126 1505.7,-126 1502.7,-122 1402.3,-122 1402.3,-86 1529.7,-86 1529.7,-122"/>
<text text-anchor="middle" x="1466" y="-99.8" font-family="Times,serif" font-size="14.00">MatSidenavModule</text>
</g>
<!-- MatSidenavModule&#45;&gt;SharedModule -->
<g id="edge11" class="edge">
<title>MatSidenavModule&#45;&gt;SharedModule</title>
<path fill="none" stroke="black" d="M1466,-122.11C1466,-122.11 1466,-140.99 1466,-140.99"/>
<polygon fill="black" stroke="black" points="1462.5,-140.99 1466,-150.99 1469.5,-140.99 1462.5,-140.99"/>
</g>
<!-- MatIconModule -->
<g id="node13" class="node">
<title>MatIconModule</title>
<polygon fill="#8dd3c7" stroke="black" points="1384.47,-122 1381.47,-126 1360.47,-126 1357.47,-122 1277.53,-122 1277.53,-86 1384.47,-86 1384.47,-122"/>
<text text-anchor="middle" x="1331" y="-99.8" font-family="Times,serif" font-size="14.00">MatIconModule</text>
</g>
<!-- MatIconModule&#45;&gt;SharedModule -->
<g id="edge12" class="edge">
<title>MatIconModule&#45;&gt;SharedModule</title>
<path fill="none" stroke="black" d="M1339.6,-122.05C1339.6,-136.37 1339.6,-154 1339.6,-154 1339.6,-154 1406.77,-154 1406.77,-154"/>
<polygon fill="black" stroke="black" points="1406.77,-157.5 1416.77,-154 1406.77,-150.5 1406.77,-157.5"/>
</g>
<!-- MatListModule -->
<g id="node14" class="node">
<title>MatListModule</title>
<polygon fill="#8dd3c7" stroke="black" points="1259.88,-122 1256.88,-126 1235.88,-126 1232.88,-122 1156.12,-122 1156.12,-86 1259.88,-86 1259.88,-122"/>
<text text-anchor="middle" x="1208" y="-99.8" font-family="Times,serif" font-size="14.00">MatListModule</text>
</g>
<!-- MatListModule&#45;&gt;SharedModule -->
<g id="edge13" class="edge">
<title>MatListModule&#45;&gt;SharedModule</title>
<path fill="none" stroke="black" d="M1212.46,-122.24C1212.46,-137.57 1212.46,-157 1212.46,-157 1212.46,-157 1406.51,-157 1406.51,-157"/>
<polygon fill="black" stroke="black" points="1406.51,-160.5 1416.51,-157 1406.51,-153.5 1406.51,-160.5"/>
</g>
<!-- OverlayModule -->
<g id="node15" class="node">
<title>OverlayModule</title>
<polygon fill="#8dd3c7" stroke="black" points="1138.14,-122 1135.14,-126 1114.14,-126 1111.14,-122 1033.86,-122 1033.86,-86 1138.14,-86 1138.14,-122"/>
<text text-anchor="middle" x="1086" y="-99.8" font-family="Times,serif" font-size="14.00">OverlayModule</text>
</g>
<!-- OverlayModule&#45;&gt;SharedModule -->
<g id="edge14" class="edge">
<title>OverlayModule&#45;&gt;SharedModule</title>
<path fill="none" stroke="black" d="M1086,-122.03C1086,-138.4 1086,-160 1086,-160 1086,-160 1406.71,-160 1406.71,-160"/>
<polygon fill="black" stroke="black" points="1406.71,-163.5 1416.71,-160 1406.71,-156.5 1406.71,-163.5"/>
</g>
<!-- MatProgressSpinnerModule -->
<g id="node16" class="node">
<title>MatProgressSpinnerModule</title>
<polygon fill="#8dd3c7" stroke="black" points="1015.86,-122 1012.86,-126 991.86,-126 988.86,-122 842.14,-122 842.14,-86 1015.86,-86 1015.86,-122"/>
<text text-anchor="middle" x="929" y="-99.8" font-family="Times,serif" font-size="14.00">MatProgressSpinnerModule</text>
</g>
<!-- MatProgressSpinnerModule&#45;&gt;SharedModule -->
<g id="edge15" class="edge">
<title>MatProgressSpinnerModule&#45;&gt;SharedModule</title>
<path fill="none" stroke="black" d="M927.39,-122.02C927.39,-139.37 927.39,-163 927.39,-163 927.39,-163 1406.77,-163 1406.77,-163"/>
<polygon fill="black" stroke="black" points="1406.77,-166.5 1416.77,-163 1406.77,-159.5 1406.77,-166.5"/>
</g>
<!-- MatCardModule -->
<g id="node17" class="node">
<title>MatCardModule</title>
<polygon fill="#8dd3c7" stroke="black" points="823.81,-122 820.81,-126 799.81,-126 796.81,-122 714.19,-122 714.19,-86 823.81,-86 823.81,-122"/>
<text text-anchor="middle" x="769" y="-99.8" font-family="Times,serif" font-size="14.00">MatCardModule</text>
</g>
<!-- MatCardModule&#45;&gt;SharedModule -->
<g id="edge16" class="edge">
<title>MatCardModule&#45;&gt;SharedModule</title>
<path fill="none" stroke="black" d="M769,-122.3C769,-140.27 769,-165 769,-165 769,-165 1406.71,-165 1406.71,-165"/>
<polygon fill="black" stroke="black" points="1406.71,-168.5 1416.71,-165 1406.71,-161.5 1406.71,-168.5"/>
</g>
<!-- MatPaginatorModule -->
<g id="node18" class="node">
<title>MatPaginatorModule</title>
<polygon fill="#8dd3c7" stroke="black" points="695.75,-122 692.75,-126 671.75,-126 668.75,-122 560.25,-122 560.25,-86 695.75,-86 695.75,-122"/>
<text text-anchor="middle" x="628" y="-99.8" font-family="Times,serif" font-size="14.00">MatPaginatorModule</text>
</g>
<!-- MatPaginatorModule&#45;&gt;SharedModule -->
<g id="edge17" class="edge">
<title>MatPaginatorModule&#45;&gt;SharedModule</title>
<path fill="none" stroke="black" d="M628,-122.17C628,-141.09 628,-168 628,-168 628,-168 1406.71,-168 1406.71,-168"/>
<polygon fill="black" stroke="black" points="1406.71,-171.5 1416.71,-168 1406.71,-164.5 1406.71,-171.5"/>
</g>
<!-- MatButtonModule -->
<g id="node19" class="node">
<title>MatButtonModule</title>
<polygon fill="#8dd3c7" stroke="black" points="542.22,-122 539.22,-126 518.22,-126 515.22,-122 421.78,-122 421.78,-86 542.22,-86 542.22,-122"/>
<text text-anchor="middle" x="482" y="-99.8" font-family="Times,serif" font-size="14.00">MatButtonModule</text>
</g>
<!-- MatButtonModule&#45;&gt;SharedModule -->
<g id="edge18" class="edge">
<title>MatButtonModule&#45;&gt;SharedModule</title>
<path fill="none" stroke="black" d="M482,-122.31C482,-142.15 482,-171 482,-171 482,-171 1406.53,-171 1406.53,-171"/>
<polygon fill="black" stroke="black" points="1406.53,-174.5 1416.53,-171 1406.53,-167.5 1406.53,-174.5"/>
</g>
<!-- RouterModule -->
<g id="node20" class="node">
<title>RouterModule</title>
<polygon fill="#8dd3c7" stroke="black" points="403.65,-122 400.65,-126 379.65,-126 376.65,-122 306.35,-122 306.35,-86 403.65,-86 403.65,-122"/>
<text text-anchor="middle" x="355" y="-99.8" font-family="Times,serif" font-size="14.00">RouterModule</text>
</g>
<!-- RouterModule&#45;&gt;SharedModule -->
<g id="edge19" class="edge">
<title>RouterModule&#45;&gt;SharedModule</title>
<path fill="none" stroke="black" d="M355,-122.03C355,-142.77 355,-174 355,-174 355,-174 1406.47,-174 1406.47,-174"/>
<polygon fill="black" stroke="black" points="1406.47,-177.5 1416.47,-174 1406.47,-170.5 1406.47,-177.5"/>
</g>
<!-- NgbModule -->
<g id="node21" class="node">
<title>NgbModule</title>
<polygon fill="#8dd3c7" stroke="black" points="287.66,-122 284.66,-126 263.66,-126 260.66,-122 204.34,-122 204.34,-86 287.66,-86 287.66,-122"/>
<text text-anchor="middle" x="246" y="-99.8" font-family="Times,serif" font-size="14.00">NgbModule</text>
</g>
<!-- NgbModule&#45;&gt;SharedModule -->
<g id="edge20" class="edge">
<title>NgbModule&#45;&gt;SharedModule</title>
<path fill="none" stroke="black" d="M246,-122.17C246,-143.5 246,-176 246,-176 246,-176 1406.66,-176 1406.66,-176"/>
<polygon fill="black" stroke="black" points="1406.66,-179.5 1416.66,-176 1406.66,-172.5 1406.66,-179.5"/>
</g>
<!-- LocaldataService -->
<g id="node28" class="node">
<title>LocaldataService</title>
<ellipse fill="#fdb462" stroke="black" cx="102" cy="-104" rx="78.12" ry="18"/>
<text text-anchor="middle" x="102" y="-99.8" font-family="Times,serif" font-size="14.00">LocaldataService</text>
</g>
<!-- LocaldataService&#45;&gt;SharedModule -->
<g id="edge27" class="edge">
<title>LocaldataService&#45;&gt;SharedModule</title>
<path fill="none" stroke="black" d="M102,-122.16C102,-144.35 102,-179 102,-179 102,-179 1406.65,-179 1406.65,-179"/>
<polygon fill="black" stroke="black" points="1406.65,-182.5 1416.65,-179 1406.65,-175.5 1406.65,-182.5"/>
</g>
</g>
</svg>
