<?xml version="1.0" encoding="UTF-8" standalone="no"?>
<!DOCTYPE svg PUBLIC "-//W3C//DTD SVG 1.1//EN"
 "http://www.w3.org/Graphics/SVG/1.1/DTD/svg11.dtd">
<!-- Generated by graphviz version 2.44.1 (20200629.0846)
 -->
<!-- Title: dependencies Pages: 1 -->
<svg width="988pt" height="284pt"
 viewBox="0.00 0.00 988.00 284.00" xmlns="http://www.w3.org/2000/svg" xmlns:xlink="http://www.w3.org/1999/xlink">
<g id="graph0" class="graph" transform="scale(1 1) rotate(0) translate(4 280)">
<title>dependencies</title>
<polygon fill="white" stroke="transparent" points="-4,4 -4,-280 984,-280 984,4 -4,4"/>
<text text-anchor="start" x="469.01" y="-42.4" font-family="sans-serif" font-weight="bold" font-size="14.00">Legend</text>
<polygon fill="#ffffb3" stroke="transparent" points="256,-10 256,-30 276,-30 276,-10 256,-10"/>
<text text-anchor="start" x="279.63" y="-15.4" font-family="sans-serif" font-size="14.00"> &#160;Declarations</text>
<polygon fill="#8dd3c7" stroke="transparent" points="369,-10 369,-30 389,-30 389,-10 369,-10"/>
<text text-anchor="start" x="392.73" y="-15.4" font-family="sans-serif" font-size="14.00"> &#160;Module</text>
<polygon fill="#80b1d3" stroke="transparent" points="455,-10 455,-30 475,-30 475,-10 455,-10"/>
<text text-anchor="start" x="478.78" y="-15.4" font-family="sans-serif" font-size="14.00"> &#160;Bootstrap</text>
<polygon fill="#fdb462" stroke="transparent" points="552,-10 552,-30 572,-30 572,-10 552,-10"/>
<text text-anchor="start" x="575.67" y="-15.4" font-family="sans-serif" font-size="14.00"> &#160;Providers</text>
<polygon fill="#fb8072" stroke="transparent" points="648,-10 648,-30 668,-30 668,-10 648,-10"/>
<text text-anchor="start" x="671.73" y="-15.4" font-family="sans-serif" font-size="14.00"> &#160;Exports</text>
<g id="clust1" class="cluster">
<title>cluster_AppModule</title>
<polygon fill="none" stroke="black" stroke-dasharray="1,5" points="8,-70 8,-268 972,-268 972,-70 8,-70"/>
</g>
<g id="clust4" class="cluster">
<title>cluster_AppModule_imports</title>
<polygon fill="none" stroke="black" points="146,-78 146,-130 964,-130 964,-78 146,-78"/>
</g>
<g id="clust2" class="cluster">
<title>cluster_AppModule_declarations</title>
<polygon fill="none" stroke="black" points="16,-78 16,-130 138,-130 138,-78 16,-78"/>
</g>
<g id="clust6" class="cluster">
<title>cluster_AppModule_bootstrap</title>
<polygon fill="none" stroke="black" points="381,-208 381,-260 505,-260 505,-208 381,-208"/>
</g>
<!-- AppComponent -->
<g id="node1" class="node">
<title>AppComponent</title>
<polygon fill="#ffffb3" stroke="black" points="129.94,-122 24.06,-122 24.06,-86 129.94,-86 129.94,-122"/>
<text text-anchor="middle" x="77" y="-99.8" font-family="Times,serif" font-size="14.00">AppComponent</text>
</g>
<!-- AppModule -->
<g id="node2" class="node">
<title>AppModule</title>
<polygon fill="#8dd3c7" stroke="black" points="484.66,-187 481.66,-191 460.66,-191 457.66,-187 401.34,-187 401.34,-151 484.66,-151 484.66,-187"/>
<text text-anchor="middle" x="443" y="-164.8" font-family="Times,serif" font-size="14.00">AppModule</text>
</g>
<!-- AppComponent&#45;&gt;AppModule -->
<g id="edge1" class="edge">
<title>AppComponent&#45;&gt;AppModule</title>
<path fill="none" stroke="black" d="M77,-122.29C77,-144.21 77,-178 77,-178 77,-178 391.02,-178 391.02,-178"/>
<polygon fill="black" stroke="black" points="391.02,-181.5 401.02,-178 391.02,-174.5 391.02,-181.5"/>
</g>
<!-- AppComponent  -->
<g id="node9" class="node">
<title>AppComponent </title>
<polygon fill="#80b1d3" stroke="black" points="497.44,-252 388.56,-252 388.56,-216 497.44,-216 497.44,-252"/>
<text text-anchor="middle" x="443" y="-229.8" font-family="Times,serif" font-size="14.00">AppComponent </text>
</g>
<!-- AppModule&#45;&gt;AppComponent  -->
<g id="edge8" class="edge">
<title>AppModule&#45;&gt;AppComponent </title>
<path fill="none" stroke="black" stroke-dasharray="1,5" d="M443,-187.11C443,-187.11 443,-205.99 443,-205.99"/>
<polygon fill="black" stroke="black" points="439.5,-205.99 443,-215.99 446.5,-205.99 439.5,-205.99"/>
</g>
<!-- BrowserModule -->
<g id="node3" class="node">
<title>BrowserModule</title>
<polygon fill="#8dd3c7" stroke="black" points="956.47,-122 953.47,-126 932.47,-126 929.47,-122 849.53,-122 849.53,-86 956.47,-86 956.47,-122"/>
<text text-anchor="middle" x="903" y="-99.8" font-family="Times,serif" font-size="14.00">BrowserModule</text>
</g>
<!-- BrowserModule&#45;&gt;AppModule -->
<g id="edge2" class="edge">
<title>BrowserModule&#45;&gt;AppModule</title>
<path fill="none" stroke="black" d="M903,-122.29C903,-144.21 903,-178 903,-178 903,-178 495.04,-178 495.04,-178"/>
<polygon fill="black" stroke="black" points="495.04,-174.5 485.04,-178 495.04,-181.5 495.04,-174.5"/>
</g>
<!-- AppRoutingModule -->
<g id="node4" class="node">
<title>AppRoutingModule</title>
<polygon fill="#8dd3c7" stroke="black" points="831.27,-122 828.27,-126 807.27,-126 804.27,-122 702.73,-122 702.73,-86 831.27,-86 831.27,-122"/>
<text text-anchor="middle" x="767" y="-99.8" font-family="Times,serif" font-size="14.00">AppRoutingModule</text>
</g>
<!-- AppRoutingModule&#45;&gt;AppModule -->
<g id="edge3" class="edge">
<title>AppRoutingModule&#45;&gt;AppModule</title>
<path fill="none" stroke="black" d="M767,-122.11C767,-141.34 767,-169 767,-169 767,-169 494.69,-169 494.69,-169"/>
<polygon fill="black" stroke="black" points="494.69,-165.5 484.69,-169 494.69,-172.5 494.69,-165.5"/>
</g>
<!-- BrowserAnimationsModule -->
<g id="node5" class="node">
<title>BrowserAnimationsModule</title>
<polygon fill="#8dd3c7" stroke="black" points="684.3,-122 681.3,-126 660.3,-126 657.3,-122 511.7,-122 511.7,-86 684.3,-86 684.3,-122"/>
<text text-anchor="middle" x="598" y="-99.8" font-family="Times,serif" font-size="14.00">BrowserAnimationsModule</text>
</g>
<!-- BrowserAnimationsModule&#45;&gt;AppModule -->
<g id="edge4" class="edge">
<title>BrowserAnimationsModule&#45;&gt;AppModule</title>
<path fill="none" stroke="black" d="M598,-122.03C598,-138.4 598,-160 598,-160 598,-160 494.95,-160 494.95,-160"/>
<polygon fill="black" stroke="black" points="494.95,-156.5 484.95,-160 494.95,-163.5 494.95,-156.5"/>
</g>
<!-- DefaultModule -->
<g id="node6" class="node">
<title>DefaultModule</title>
<polygon fill="#8dd3c7" stroke="black" points="493.53,-122 490.53,-126 469.53,-126 466.53,-122 392.47,-122 392.47,-86 493.53,-86 493.53,-122"/>
<text text-anchor="middle" x="443" y="-99.8" font-family="Times,serif" font-size="14.00">DefaultModule</text>
</g>
<!-- DefaultModule&#45;&gt;AppModule -->
<g id="edge5" class="edge">
<title>DefaultModule&#45;&gt;AppModule</title>
<path fill="none" stroke="black" d="M443,-122.11C443,-122.11 443,-140.99 443,-140.99"/>
<polygon fill="black" stroke="black" points="439.5,-140.99 443,-150.99 446.5,-140.99 439.5,-140.99"/>
</g>
<!-- HttpClientModule -->
<g id="node7" class="node">
<title>HttpClientModule</title>
<polygon fill="#8dd3c7" stroke="black" points="374.16,-122 371.16,-126 350.16,-126 347.16,-122 255.84,-122 255.84,-86 374.16,-86 374.16,-122"/>
<text text-anchor="middle" x="315" y="-99.8" font-family="Times,serif" font-size="14.00">HttpClientModule</text>
</g>
<!-- HttpClientModule&#45;&gt;AppModule -->
<g id="edge6" class="edge">
<title>HttpClientModule&#45;&gt;AppModule</title>
<path fill="none" stroke="black" d="M315,-122.03C315,-138.4 315,-160 315,-160 315,-160 391.09,-160 391.09,-160"/>
<polygon fill="black" stroke="black" points="391.09,-163.5 401.09,-160 391.09,-156.5 391.09,-163.5"/>
</g>
<!-- NgbModule -->
<g id="node8" class="node">
<title>NgbModule</title>
<polygon fill="#8dd3c7" stroke="black" points="237.66,-122 234.66,-126 213.66,-126 210.66,-122 154.34,-122 154.34,-86 237.66,-86 237.66,-122"/>
<text text-anchor="middle" x="196" y="-99.8" font-family="Times,serif" font-size="14.00">NgbModule</text>
</g>
<!-- NgbModule&#45;&gt;AppModule -->
<g id="edge7" class="edge">
<title>NgbModule&#45;&gt;AppModule</title>
<path fill="none" stroke="black" d="M196,-122.11C196,-141.34 196,-169 196,-169 196,-169 391.1,-169 391.1,-169"/>
<polygon fill="black" stroke="black" points="391.1,-172.5 401.1,-169 391.1,-165.5 391.1,-172.5"/>
</g>
</g>
</svg>
