<?xml version="1.0" encoding="UTF-8" standalone="no"?>
<!DOCTYPE svg PUBLIC "-//W3C//DTD SVG 1.1//EN"
 "http://www.w3.org/Graphics/SVG/1.1/DTD/svg11.dtd">
<!-- Generated by graphviz version 2.44.1 (20200629.0846)
 -->
<!-- Title: dependencies Pages: 1 -->
<svg width="1995pt" height="211pt"
 viewBox="0.00 0.00 1995.00 211.00" xmlns="http://www.w3.org/2000/svg" xmlns:xlink="http://www.w3.org/1999/xlink">
<g id="graph0" class="graph" transform="scale(1 1) rotate(0) translate(4 207)">
<title>dependencies</title>
<polygon fill="white" stroke="transparent" points="-4,4 -4,-207 1991,-207 1991,4 -4,4"/>
<text text-anchor="start" x="972.51" y="-42.4" font-family="sans-serif" font-weight="bold" font-size="14.00">Legend</text>
<polygon fill="#ffffb3" stroke="transparent" points="759.5,-10 759.5,-30 779.5,-30 779.5,-10 759.5,-10"/>
<text text-anchor="start" x="783.13" y="-15.4" font-family="sans-serif" font-size="14.00"> &#160;Declarations</text>
<polygon fill="#8dd3c7" stroke="transparent" points="872.5,-10 872.5,-30 892.5,-30 892.5,-10 872.5,-10"/>
<text text-anchor="start" x="896.23" y="-15.4" font-family="sans-serif" font-size="14.00"> &#160;Module</text>
<polygon fill="#80b1d3" stroke="transparent" points="958.5,-10 958.5,-30 978.5,-30 978.5,-10 958.5,-10"/>
<text text-anchor="start" x="982.28" y="-15.4" font-family="sans-serif" font-size="14.00"> &#160;Bootstrap</text>
<polygon fill="#fdb462" stroke="transparent" points="1055.5,-10 1055.5,-30 1075.5,-30 1075.5,-10 1055.5,-10"/>
<text text-anchor="start" x="1079.17" y="-15.4" font-family="sans-serif" font-size="14.00"> &#160;Providers</text>
<polygon fill="#fb8072" stroke="transparent" points="1151.5,-10 1151.5,-30 1171.5,-30 1171.5,-10 1151.5,-10"/>
<text text-anchor="start" x="1175.23" y="-15.4" font-family="sans-serif" font-size="14.00"> &#160;Exports</text>
<g id="clust1" class="cluster">
<title>cluster_DefaultModule</title>
<polygon fill="none" stroke="black" stroke-dasharray="1,5" points="8,-70 8,-195 1979,-195 1979,-70 8,-70"/>
</g>
<g id="clust9" class="cluster">
<title>cluster_DefaultModule_providers</title>
<polygon fill="none" stroke="black" points="1605,-78 1605,-130 1971,-130 1971,-78 1605,-78"/>
</g>
<g id="clust2" class="cluster">
<title>cluster_DefaultModule_declarations</title>
<polygon fill="none" stroke="black" points="1184,-78 1184,-130 1597,-130 1597,-78 1184,-78"/>
</g>
<g id="clust6" class="cluster">
<title>cluster_DefaultModule_imports</title>
<polygon fill="none" stroke="black" points="16,-78 16,-130 1176,-130 1176,-78 16,-78"/>
</g>
<!-- DefaultComponent -->
<g id="node1" class="node">
<title>DefaultComponent</title>
<polygon fill="#ffffb3" stroke="black" points="1588.81,-122 1465.19,-122 1465.19,-86 1588.81,-86 1588.81,-122"/>
<text text-anchor="middle" x="1527" y="-99.8" font-family="Times,serif" font-size="14.00">DefaultComponent</text>
</g>
<!-- DefaultModule -->
<g id="node4" class="node">
<title>DefaultModule</title>
<polygon fill="#8dd3c7" stroke="black" points="981.53,-187 978.53,-191 957.53,-191 954.53,-187 880.47,-187 880.47,-151 981.53,-151 981.53,-187"/>
<text text-anchor="middle" x="931" y="-164.8" font-family="Times,serif" font-size="14.00">DefaultModule</text>
</g>
<!-- DefaultComponent&#45;&gt;DefaultModule -->
<g id="edge1" class="edge">
<title>DefaultComponent&#45;&gt;DefaultModule</title>
<path fill="none" stroke="black" d="M1527,-122.22C1527,-142.37 1527,-172 1527,-172 1527,-172 991.56,-172 991.56,-172"/>
<polygon fill="black" stroke="black" points="991.56,-168.5 981.56,-172 991.56,-175.5 991.56,-168.5"/>
</g>
<!-- HomeComponent -->
<g id="node2" class="node">
<title>HomeComponent</title>
<polygon fill="#ffffb3" stroke="black" points="1447.55,-122 1332.45,-122 1332.45,-86 1447.55,-86 1447.55,-122"/>
<text text-anchor="middle" x="1390" y="-99.8" font-family="Times,serif" font-size="14.00">HomeComponent</text>
</g>
<!-- HomeComponent&#45;&gt;DefaultModule -->
<g id="edge2" class="edge">
<title>HomeComponent&#45;&gt;DefaultModule</title>
<path fill="none" stroke="black" d="M1390,-122.22C1390,-140.83 1390,-167 1390,-167 1390,-167 991.87,-167 991.87,-167"/>
<polygon fill="black" stroke="black" points="991.87,-163.5 981.87,-167 991.87,-170.5 991.87,-163.5"/>
</g>
<!-- ResultsComponent -->
<g id="node3" class="node">
<title>ResultsComponent</title>
<polygon fill="#ffffb3" stroke="black" points="1314.05,-122 1191.95,-122 1191.95,-86 1314.05,-86 1314.05,-122"/>
<text text-anchor="middle" x="1253" y="-99.8" font-family="Times,serif" font-size="14.00">ResultsComponent</text>
</g>
<!-- ResultsComponent&#45;&gt;DefaultModule -->
<g id="edge3" class="edge">
<title>ResultsComponent&#45;&gt;DefaultModule</title>
<path fill="none" stroke="black" d="M1253,-122.03C1253,-139.06 1253,-162 1253,-162 1253,-162 991.67,-162 991.67,-162"/>
<polygon fill="black" stroke="black" points="991.67,-158.5 981.67,-162 991.67,-165.5 991.67,-158.5"/>
</g>
<!-- CommonModule -->
<g id="node5" class="node">
<title>CommonModule</title>
<polygon fill="#8dd3c7" stroke="black" points="1167.67,-122 1164.67,-126 1143.67,-126 1140.67,-122 1056.33,-122 1056.33,-86 1167.67,-86 1167.67,-122"/>
<text text-anchor="middle" x="1112" y="-99.8" font-family="Times,serif" font-size="14.00">CommonModule</text>
</g>
<!-- CommonModule&#45;&gt;DefaultModule -->
<g id="edge4" class="edge">
<title>CommonModule&#45;&gt;DefaultModule</title>
<path fill="none" stroke="black" d="M1112,-122.24C1112,-137.57 1112,-157 1112,-157 1112,-157 991.9,-157 991.9,-157"/>
<polygon fill="black" stroke="black" points="991.9,-153.5 981.9,-157 991.9,-160.5 991.9,-153.5"/>
</g>
<!-- RouterModule -->
<g id="node6" class="node">
<title>RouterModule</title>
<polygon fill="#8dd3c7" stroke="black" points="1037.65,-122 1034.65,-126 1013.65,-126 1010.65,-122 940.35,-122 940.35,-86 1037.65,-86 1037.65,-122"/>
<text text-anchor="middle" x="989" y="-99.8" font-family="Times,serif" font-size="14.00">RouterModule</text>
</g>
<!-- RouterModule&#45;&gt;DefaultModule -->
<g id="edge5" class="edge">
<title>RouterModule&#45;&gt;DefaultModule</title>
<path fill="none" stroke="black" d="M960.97,-122.11C960.97,-122.11 960.97,-140.99 960.97,-140.99"/>
<polygon fill="black" stroke="black" points="957.47,-140.99 960.97,-150.99 964.47,-140.99 957.47,-140.99"/>
</g>
<!-- SharedModule -->
<g id="node7" class="node">
<title>SharedModule</title>
<polygon fill="#8dd3c7" stroke="black" points="922.42,-122 919.42,-126 898.42,-126 895.42,-122 823.58,-122 823.58,-86 922.42,-86 922.42,-122"/>
<text text-anchor="middle" x="873" y="-99.8" font-family="Times,serif" font-size="14.00">SharedModule</text>
</g>
<!-- SharedModule&#45;&gt;DefaultModule -->
<g id="edge6" class="edge">
<title>SharedModule&#45;&gt;DefaultModule</title>
<path fill="none" stroke="black" d="M901.22,-122.11C901.22,-122.11 901.22,-140.99 901.22,-140.99"/>
<polygon fill="black" stroke="black" points="897.72,-140.99 901.22,-150.99 904.72,-140.99 897.72,-140.99"/>
</g>
<!-- MatSidenavModule -->
<g id="node8" class="node">
<title>MatSidenavModule</title>
<polygon fill="#8dd3c7" stroke="black" points="805.7,-122 802.7,-126 781.7,-126 778.7,-122 678.3,-122 678.3,-86 805.7,-86 805.7,-122"/>
<text text-anchor="middle" x="742" y="-99.8" font-family="Times,serif" font-size="14.00">MatSidenavModule</text>
</g>
<!-- MatSidenavModule&#45;&gt;DefaultModule -->
<g id="edge7" class="edge">
<title>MatSidenavModule&#45;&gt;DefaultModule</title>
<path fill="none" stroke="black" d="M742,-122.24C742,-137.57 742,-157 742,-157 742,-157 870.35,-157 870.35,-157"/>
<polygon fill="black" stroke="black" points="870.35,-160.5 880.35,-157 870.35,-153.5 870.35,-160.5"/>
</g>
<!-- MatPaginatorModule -->
<g id="node9" class="node">
<title>MatPaginatorModule</title>
<polygon fill="#8dd3c7" stroke="black" points="660.75,-122 657.75,-126 636.75,-126 633.75,-122 525.25,-122 525.25,-86 660.75,-86 660.75,-122"/>
<text text-anchor="middle" x="593" y="-99.8" font-family="Times,serif" font-size="14.00">MatPaginatorModule</text>
</g>
<!-- MatPaginatorModule&#45;&gt;DefaultModule -->
<g id="edge8" class="edge">
<title>MatPaginatorModule&#45;&gt;DefaultModule</title>
<path fill="none" stroke="black" d="M593,-122.03C593,-139.06 593,-162 593,-162 593,-162 870.4,-162 870.4,-162"/>
<polygon fill="black" stroke="black" points="870.4,-165.5 880.4,-162 870.4,-158.5 870.4,-165.5"/>
</g>
<!-- MatGridListModule -->
<g id="node10" class="node">
<title>MatGridListModule</title>
<polygon fill="#8dd3c7" stroke="black" points="506.54,-122 503.54,-126 482.54,-126 479.54,-122 377.46,-122 377.46,-86 506.54,-86 506.54,-122"/>
<text text-anchor="middle" x="442" y="-99.8" font-family="Times,serif" font-size="14.00">MatGridListModule</text>
</g>
<!-- MatGridListModule&#45;&gt;DefaultModule -->
<g id="edge9" class="edge">
<title>MatGridListModule&#45;&gt;DefaultModule</title>
<path fill="none" stroke="black" d="M442,-122.22C442,-140.83 442,-167 442,-167 442,-167 870.05,-167 870.05,-167"/>
<polygon fill="black" stroke="black" points="870.05,-170.5 880.05,-167 870.05,-163.5 870.05,-170.5"/>
</g>
<!-- MatCardModule -->
<g id="node11" class="node">
<title>MatCardModule</title>
<polygon fill="#8dd3c7" stroke="black" points="359.81,-122 356.81,-126 335.81,-126 332.81,-122 250.19,-122 250.19,-86 359.81,-86 359.81,-122"/>
<text text-anchor="middle" x="305" y="-99.8" font-family="Times,serif" font-size="14.00">MatCardModule</text>
</g>
<!-- MatCardModule&#45;&gt;DefaultModule -->
<g id="edge10" class="edge">
<title>MatCardModule&#45;&gt;DefaultModule</title>
<path fill="none" stroke="black" d="M305,-122.22C305,-142.37 305,-172 305,-172 305,-172 870.3,-172 870.3,-172"/>
<polygon fill="black" stroke="black" points="870.3,-175.5 880.3,-172 870.3,-168.5 870.3,-175.5"/>
</g>
<!-- MatIconModule -->
<g id="node12" class="node">
<title>MatIconModule</title>
<polygon fill="#8dd3c7" stroke="black" points="232.47,-122 229.47,-126 208.47,-126 205.47,-122 125.53,-122 125.53,-86 232.47,-86 232.47,-122"/>
<text text-anchor="middle" x="179" y="-99.8" font-family="Times,serif" font-size="14.00">MatIconModule</text>
</g>
<!-- MatIconModule&#45;&gt;DefaultModule -->
<g id="edge11" class="edge">
<title>MatIconModule&#45;&gt;DefaultModule</title>
<path fill="none" stroke="black" d="M179,-122.04C179,-143.66 179,-177 179,-177 179,-177 870.2,-177 870.2,-177"/>
<polygon fill="black" stroke="black" points="870.2,-180.5 880.2,-177 870.2,-173.5 870.2,-180.5"/>
</g>
<!-- NgbModule -->
<g id="node13" class="node">
<title>NgbModule</title>
<polygon fill="#8dd3c7" stroke="black" points="107.66,-122 104.66,-126 83.66,-126 80.66,-122 24.34,-122 24.34,-86 107.66,-86 107.66,-122"/>
<text text-anchor="middle" x="66" y="-99.8" font-family="Times,serif" font-size="14.00">NgbModule</text>
</g>
<!-- NgbModule&#45;&gt;DefaultModule -->
<g id="edge12" class="edge">
<title>NgbModule&#45;&gt;DefaultModule</title>
<path fill="none" stroke="black" d="M66,-122.09C66,-145.13 66,-182 66,-182 66,-182 870.44,-182 870.44,-182"/>
<polygon fill="black" stroke="black" points="870.44,-185.5 880.44,-182 870.44,-178.5 870.44,-185.5"/>
</g>
<!-- HackernewsService -->
<g id="node14" class="node">
<title>HackernewsService</title>
<ellipse fill="#fdb462" stroke="black" cx="1875" cy="-104" rx="87.92" ry="18"/>
<text text-anchor="middle" x="1875" y="-99.8" font-family="Times,serif" font-size="14.00">HackernewsService</text>
</g>
<!-- HackernewsService&#45;&gt;DefaultModule -->
<g id="edge13" class="edge">
<title>HackernewsService&#45;&gt;DefaultModule</title>
<path fill="none" stroke="black" d="M1875,-122.09C1875,-145.13 1875,-182 1875,-182 1875,-182 991.75,-182 991.75,-182"/>
<polygon fill="black" stroke="black" points="991.75,-178.5 981.75,-182 991.75,-185.5 991.75,-178.5"/>
</g>
<!-- LocaldataService -->
<g id="node15" class="node">
<title>LocaldataService</title>
<ellipse fill="#fdb462" stroke="black" cx="1691" cy="-104" rx="78.12" ry="18"/>
<text text-anchor="middle" x="1691" y="-99.8" font-family="Times,serif" font-size="14.00">LocaldataService</text>
</g>
<!-- LocaldataService&#45;&gt;DefaultModule -->
<g id="edge14" class="edge">
<title>LocaldataService&#45;&gt;DefaultModule</title>
<path fill="none" stroke="black" d="M1691,-122.04C1691,-143.66 1691,-177 1691,-177 1691,-177 991.75,-177 991.75,-177"/>
<polygon fill="black" stroke="black" points="991.75,-173.5 981.75,-177 991.75,-180.5 991.75,-173.5"/>
</g>
</g>
</svg>
