<?xml version="1.0" encoding="UTF-8" standalone="no"?>
<!DOCTYPE svg PUBLIC "-//W3C//DTD SVG 1.1//EN"
 "http://www.w3.org/Graphics/SVG/1.1/DTD/svg11.dtd">
<!-- Generated by graphviz version 2.44.1 (20200629.0846)
 -->
<!-- Title: dependencies Pages: 1 -->
<svg width="5800pt" height="360pt"
 viewBox="0.00 0.00 5800.00 360.00" xmlns="http://www.w3.org/2000/svg" xmlns:xlink="http://www.w3.org/1999/xlink">
<g id="graph0" class="graph" transform="scale(1 1) rotate(0) translate(4 356)">
<title>dependencies</title>
<polygon fill="white" stroke="transparent" points="-4,4 -4,-356 5796,-356 5796,4 -4,4"/>
<text text-anchor="start" x="2875.01" y="-42.4" font-family="sans-serif" font-weight="bold" font-size="14.00">Legend</text>
<polygon fill="#ffffb3" stroke="transparent" points="2662,-10 2662,-30 2682,-30 2682,-10 2662,-10"/>
<text text-anchor="start" x="2685.63" y="-15.4" font-family="sans-serif" font-size="14.00"> &#160;Declarations</text>
<polygon fill="#8dd3c7" stroke="transparent" points="2775,-10 2775,-30 2795,-30 2795,-10 2775,-10"/>
<text text-anchor="start" x="2798.73" y="-15.4" font-family="sans-serif" font-size="14.00"> &#160;Module</text>
<polygon fill="#80b1d3" stroke="transparent" points="2861,-10 2861,-30 2881,-30 2881,-10 2861,-10"/>
<text text-anchor="start" x="2884.78" y="-15.4" font-family="sans-serif" font-size="14.00"> &#160;Bootstrap</text>
<polygon fill="#fdb462" stroke="transparent" points="2958,-10 2958,-30 2978,-30 2978,-10 2958,-10"/>
<text text-anchor="start" x="2981.67" y="-15.4" font-family="sans-serif" font-size="14.00"> &#160;Providers</text>
<polygon fill="#fb8072" stroke="transparent" points="3054,-10 3054,-30 3074,-30 3074,-10 3054,-10"/>
<text text-anchor="start" x="3077.73" y="-15.4" font-family="sans-serif" font-size="14.00"> &#160;Exports</text>
<g id="clust1" class="cluster">
<title>cluster_AppModule</title>
<polygon fill="none" stroke="black" stroke-dasharray="1,5" points="352,-70 352,-344 1196,-344 1196,-70 352,-70"/>
</g>
<g id="clust2" class="cluster">
<title>cluster_AppModule_declarations</title>
<polygon fill="none" stroke="black" points="1066,-154 1066,-206 1188,-206 1188,-154 1066,-154"/>
</g>
<g id="clust4" class="cluster">
<title>cluster_AppModule_imports</title>
<polygon fill="none" stroke="black" points="360,-78 360,-206 1058,-206 1058,-78 360,-78"/>
</g>
<g id="clust6" class="cluster">
<title>cluster_AppModule_bootstrap</title>
<polygon fill="none" stroke="black" points="827,-284 827,-336 951,-336 951,-284 827,-284"/>
</g>
<g id="clust8" class="cluster">
<title>cluster_AppRoutingModule</title>
<polygon fill="none" stroke="black" stroke-dasharray="1,5" points="8,-146 8,-214 344,-214 344,-146 8,-146"/>
</g>
<g id="clust10" class="cluster">
<title>cluster_AppRoutingModule_imports</title>
<polygon fill="none" stroke="black" points="142,-154 142,-206 336,-206 336,-154 142,-154"/>
</g>
<g id="clust11" class="cluster">
<title>cluster_AppRoutingModule_exports</title>
<polygon fill="none" stroke="black" points="16,-154 16,-206 134,-206 134,-154 16,-154"/>
</g>
<g id="clust14" class="cluster">
<title>cluster_DefaultModule</title>
<polygon fill="none" stroke="black" stroke-dasharray="1,5" points="1204,-70 1204,-214 2958,-214 2958,-70 1204,-70"/>
</g>
<g id="clust15" class="cluster">
<title>cluster_DefaultModule_declarations</title>
<polygon fill="none" stroke="black" points="1212,-78 1212,-130 1625,-130 1625,-78 1212,-78"/>
</g>
<g id="clust19" class="cluster">
<title>cluster_DefaultModule_imports</title>
<polygon fill="none" stroke="black" points="2007,-78 2007,-206 2950,-206 2950,-78 2007,-78"/>
</g>
<g id="clust22" class="cluster">
<title>cluster_DefaultModule_providers</title>
<polygon fill="none" stroke="black" points="1633,-78 1633,-130 1999,-130 1999,-78 1633,-78"/>
</g>
<g id="clust23" class="cluster">
<title>cluster_SharedModule</title>
<polygon fill="none" stroke="black" stroke-dasharray="1,5" points="2966,-70 2966,-138 5784,-138 5784,-70 2966,-70"/>
</g>
<g id="clust24" class="cluster">
<title>cluster_SharedModule_declarations</title>
<polygon fill="none" stroke="black" points="4893,-78 4893,-130 5776,-130 5776,-78 4893,-78"/>
</g>
<g id="clust31" class="cluster">
<title>cluster_SharedModule_imports</title>
<polygon fill="none" stroke="black" points="3884,-78 3884,-130 4885,-130 4885,-78 3884,-78"/>
</g>
<g id="clust32" class="cluster">
<title>cluster_SharedModule_exports</title>
<polygon fill="none" stroke="black" points="2974,-78 2974,-130 3876,-130 3876,-78 2974,-78"/>
</g>
<!-- AppComponent -->
<g id="node1" class="node">
<title>AppComponent</title>
<polygon fill="#ffffb3" stroke="black" points="1179.94,-198 1074.06,-198 1074.06,-162 1179.94,-162 1179.94,-198"/>
<text text-anchor="middle" x="1127" y="-175.8" font-family="Times,serif" font-size="14.00">AppComponent</text>
</g>
<!-- AppModule -->
<g id="node2" class="node">
<title>AppModule</title>
<polygon fill="#8dd3c7" stroke="black" points="930.66,-263 927.66,-267 906.66,-267 903.66,-263 847.34,-263 847.34,-227 930.66,-227 930.66,-263"/>
<text text-anchor="middle" x="889" y="-240.8" font-family="Times,serif" font-size="14.00">AppModule</text>
</g>
<!-- AppComponent&#45;&gt;AppModule -->
<g id="edge1" class="edge">
<title>AppComponent&#45;&gt;AppModule</title>
<path fill="none" stroke="black" d="M1127,-198.11C1127,-217.34 1127,-245 1127,-245 1127,-245 940.73,-245 940.73,-245"/>
<polygon fill="black" stroke="black" points="940.73,-241.5 930.73,-245 940.73,-248.5 940.73,-241.5"/>
</g>
<!-- AppComponent  -->
<g id="node9" class="node">
<title>AppComponent </title>
<polygon fill="#80b1d3" stroke="black" points="943.44,-328 834.56,-328 834.56,-292 943.44,-292 943.44,-328"/>
<text text-anchor="middle" x="889" y="-305.8" font-family="Times,serif" font-size="14.00">AppComponent </text>
</g>
<!-- AppModule&#45;&gt;AppComponent  -->
<g id="edge8" class="edge">
<title>AppModule&#45;&gt;AppComponent </title>
<path fill="none" stroke="black" stroke-dasharray="1,5" d="M889,-263.11C889,-263.11 889,-281.99 889,-281.99"/>
<polygon fill="black" stroke="black" points="885.5,-281.99 889,-291.99 892.5,-281.99 885.5,-281.99"/>
</g>
<!-- BrowserModule -->
<g id="node3" class="node">
<title>BrowserModule</title>
<polygon fill="#8dd3c7" stroke="black" points="621.47,-122 618.47,-126 597.47,-126 594.47,-122 514.53,-122 514.53,-86 621.47,-86 621.47,-122"/>
<text text-anchor="middle" x="568" y="-99.8" font-family="Times,serif" font-size="14.00">BrowserModule</text>
</g>
<!-- BrowserModule&#45;&gt;AppModule -->
<g id="edge2" class="edge">
<title>BrowserModule&#45;&gt;AppModule</title>
<path fill="none" stroke="black" d="M568,-122.14C568,-160.23 568,-245 568,-245 568,-245 837.03,-245 837.03,-245"/>
<polygon fill="black" stroke="black" points="837.03,-248.5 847.03,-245 837.03,-241.5 837.03,-248.5"/>
</g>
<!-- AppRoutingModule -->
<g id="node4" class="node">
<title>AppRoutingModule</title>
<polygon fill="#8dd3c7" stroke="black" points="496.27,-122 493.27,-126 472.27,-126 469.27,-122 367.73,-122 367.73,-86 496.27,-86 496.27,-122"/>
<text text-anchor="middle" x="432" y="-99.8" font-family="Times,serif" font-size="14.00">AppRoutingModule</text>
</g>
<!-- AppRoutingModule&#45;&gt;AppModule -->
<g id="edge3" class="edge">
<title>AppRoutingModule&#45;&gt;AppModule</title>
<path fill="none" stroke="black" d="M453.46,-122.09C453.46,-161.99 453.46,-254 453.46,-254 453.46,-254 837.24,-254 837.24,-254"/>
<polygon fill="black" stroke="black" points="837.24,-257.5 847.24,-254 837.24,-250.5 837.24,-257.5"/>
</g>
<!-- RouterModule  -->
<g id="node11" class="node">
<title>RouterModule </title>
<polygon fill="#fb8072" stroke="black" points="125.65,-198 24.35,-198 24.35,-162 125.65,-162 125.65,-198"/>
<text text-anchor="middle" x="75" y="-175.8" font-family="Times,serif" font-size="14.00">RouterModule </text>
</g>
<!-- AppRoutingModule&#45;&gt;RouterModule  -->
<g id="edge10" class="edge">
<title>AppRoutingModule&#45;&gt;RouterModule </title>
<path fill="none" stroke="black" stroke-dasharray="5,2" d="M367.35,-104C264.47,-104 75,-104 75,-104 75,-104 75,-151.99 75,-151.99"/>
<polygon fill="black" stroke="black" points="71.5,-151.99 75,-161.99 78.5,-151.99 71.5,-151.99"/>
</g>
<!-- BrowserAnimationsModule -->
<g id="node5" class="node">
<title>BrowserAnimationsModule</title>
<polygon fill="#8dd3c7" stroke="black" points="812.3,-122 809.3,-126 788.3,-126 785.3,-122 639.7,-122 639.7,-86 812.3,-86 812.3,-122"/>
<text text-anchor="middle" x="726" y="-99.8" font-family="Times,serif" font-size="14.00">BrowserAnimationsModule</text>
</g>
<!-- BrowserAnimationsModule&#45;&gt;AppModule -->
<g id="edge4" class="edge">
<title>BrowserAnimationsModule&#45;&gt;AppModule</title>
<path fill="none" stroke="black" d="M726,-122.08C726,-158.23 726,-236 726,-236 726,-236 837.02,-236 837.02,-236"/>
<polygon fill="black" stroke="black" points="837.02,-239.5 847.02,-236 837.02,-232.5 837.02,-239.5"/>
</g>
<!-- DefaultModule -->
<g id="node6" class="node">
<title>DefaultModule</title>
<polygon fill="#8dd3c7" stroke="black" points="1049.53,-198 1046.53,-202 1025.53,-202 1022.53,-198 948.47,-198 948.47,-162 1049.53,-162 1049.53,-198"/>
<text text-anchor="middle" x="999" y="-175.8" font-family="Times,serif" font-size="14.00">DefaultModule</text>
</g>
<!-- DefaultModule&#45;&gt;AppModule -->
<g id="edge5" class="edge">
<title>DefaultModule&#45;&gt;AppModule</title>
<path fill="none" stroke="black" d="M948.47,-186C928.36,-186 909.91,-186 909.91,-186 909.91,-186 909.91,-216.98 909.91,-216.98"/>
<polygon fill="black" stroke="black" points="906.41,-216.98 909.91,-226.98 913.41,-216.98 906.41,-216.98"/>
</g>
<!-- HttpClientModule -->
<g id="node7" class="node">
<title>HttpClientModule</title>
<polygon fill="#8dd3c7" stroke="black" points="948.16,-122 945.16,-126 924.16,-126 921.16,-122 829.84,-122 829.84,-86 948.16,-86 948.16,-122"/>
<text text-anchor="middle" x="889" y="-99.8" font-family="Times,serif" font-size="14.00">HttpClientModule</text>
</g>
<!-- HttpClientModule&#45;&gt;AppModule -->
<g id="edge6" class="edge">
<title>HttpClientModule&#45;&gt;AppModule</title>
<path fill="none" stroke="black" d="M868.09,-122.14C868.09,-122.14 868.09,-216.93 868.09,-216.93"/>
<polygon fill="black" stroke="black" points="864.59,-216.92 868.09,-226.93 871.59,-216.93 864.59,-216.92"/>
</g>
<!-- NgbModule -->
<g id="node8" class="node">
<title>NgbModule</title>
<polygon fill="#8dd3c7" stroke="black" points="1049.66,-122 1046.66,-126 1025.66,-126 1022.66,-122 966.34,-122 966.34,-86 1049.66,-86 1049.66,-122"/>
<text text-anchor="middle" x="1008" y="-99.8" font-family="Times,serif" font-size="14.00">NgbModule</text>
</g>
<!-- NgbModule&#45;&gt;AppModule -->
<g id="edge7" class="edge">
<title>NgbModule&#45;&gt;AppModule</title>
<path fill="none" stroke="black" d="M972.14,-122.17C972.14,-124.45 972.14,-126 972.14,-126 972.14,-126 889,-126 889,-126 889,-126 889,-216.93 889,-216.93"/>
<polygon fill="black" stroke="black" points="885.5,-216.93 889,-226.93 892.5,-216.93 885.5,-216.93"/>
</g>
<!-- NgbModule&#45;&gt;DefaultModule -->
<g id="edge22" class="edge">
<title>NgbModule&#45;&gt;DefaultModule</title>
<path fill="none" stroke="black" d="M978.11,-122.01C978.11,-122.01 978.11,-151.85 978.11,-151.85"/>
<polygon fill="black" stroke="black" points="974.61,-151.85 978.11,-161.85 981.61,-151.85 974.61,-151.85"/>
</g>
<!-- SharedModule -->
<g id="node17" class="node">
<title>SharedModule</title>
<polygon fill="#8dd3c7" stroke="black" points="2942.42,-198 2939.42,-202 2918.42,-202 2915.42,-198 2843.58,-198 2843.58,-162 2942.42,-162 2942.42,-198"/>
<text text-anchor="middle" x="2893" y="-175.8" font-family="Times,serif" font-size="14.00">SharedModule</text>
</g>
<!-- NgbModule&#45;&gt;SharedModule -->
<g id="edge44" class="edge">
<title>NgbModule&#45;&gt;SharedModule</title>
<path fill="none" stroke="black" d="M1050.07,-98C1106.51,-98 1199.72,-98 1199.72,-98 1199.72,-98 1199.72,-194 1199.72,-194 1199.72,-194 2833.7,-194 2833.7,-194"/>
<polygon fill="black" stroke="black" points="2833.7,-197.5 2843.7,-194 2833.7,-190.5 2833.7,-197.5"/>
</g>
<!-- RouterModule.forRoot(args) -->
<g id="node10" class="node">
<title>RouterModule.forRoot(args)</title>
<polygon fill="#8dd3c7" stroke="black" points="327.84,-198 324.84,-202 303.84,-202 300.84,-198 150.16,-198 150.16,-162 327.84,-162 327.84,-198"/>
<text text-anchor="middle" x="239" y="-175.8" font-family="Times,serif" font-size="14.00">RouterModule.forRoot(args)</text>
</g>
<!-- RouterModule.forRoot(args)&#45;&gt;AppRoutingModule -->
<g id="edge9" class="edge">
<title>RouterModule.forRoot(args)&#45;&gt;AppRoutingModule</title>
<path fill="none" stroke="black" d="M327.78,-174C369.64,-174 410.54,-174 410.54,-174 410.54,-174 410.54,-132.03 410.54,-132.03"/>
<polygon fill="black" stroke="black" points="414.04,-132.03 410.54,-122.03 407.04,-132.03 414.04,-132.03"/>
</g>
<!-- DefaultComponent -->
<g id="node12" class="node">
<title>DefaultComponent</title>
<polygon fill="#ffffb3" stroke="black" points="1616.81,-122 1493.19,-122 1493.19,-86 1616.81,-86 1616.81,-122"/>
<text text-anchor="middle" x="1555" y="-99.8" font-family="Times,serif" font-size="14.00">DefaultComponent</text>
</g>
<!-- DefaultComponent&#45;&gt;DefaultModule -->
<g id="edge11" class="edge">
<title>DefaultComponent&#45;&gt;DefaultModule</title>
<path fill="none" stroke="black" d="M1555,-122.21C1555,-127.55 1555,-132 1555,-132 1555,-132 990.06,-132 990.06,-132 990.06,-132 990.06,-151.85 990.06,-151.85"/>
<polygon fill="black" stroke="black" points="986.56,-151.85 990.06,-161.85 993.56,-151.85 986.56,-151.85"/>
</g>
<!-- HomeComponent -->
<g id="node13" class="node">
<title>HomeComponent</title>
<polygon fill="#ffffb3" stroke="black" points="1475.55,-122 1360.45,-122 1360.45,-86 1475.55,-86 1475.55,-122"/>
<text text-anchor="middle" x="1418" y="-99.8" font-family="Times,serif" font-size="14.00">HomeComponent</text>
</g>
<!-- HomeComponent&#45;&gt;DefaultModule -->
<g id="edge12" class="edge">
<title>HomeComponent&#45;&gt;DefaultModule</title>
<path fill="none" stroke="black" d="M1418,-122.17C1418,-126.05 1418,-129 1418,-129 1418,-129 984.08,-129 984.08,-129 984.08,-129 984.08,-151.88 984.08,-151.88"/>
<polygon fill="black" stroke="black" points="980.58,-151.88 984.08,-161.88 987.58,-151.88 980.58,-151.88"/>
</g>
<!-- ResultsComponent -->
<g id="node14" class="node">
<title>ResultsComponent</title>
<polygon fill="#ffffb3" stroke="black" points="1342.05,-122 1219.95,-122 1219.95,-86 1342.05,-86 1342.05,-122"/>
<text text-anchor="middle" x="1281" y="-99.8" font-family="Times,serif" font-size="14.00">ResultsComponent</text>
</g>
<!-- ResultsComponent&#45;&gt;DefaultModule -->
<g id="edge13" class="edge">
<title>ResultsComponent&#45;&gt;DefaultModule</title>
<path fill="none" stroke="black" d="M1219.72,-110C1154.95,-110 1062.05,-110 1062.05,-110 1062.05,-110 1062.05,-180 1062.05,-180 1062.05,-180 1059.6,-180 1059.6,-180"/>
<polygon fill="black" stroke="black" points="1059.6,-176.5 1049.6,-180 1059.6,-183.5 1059.6,-176.5"/>
</g>
<!-- CommonModule -->
<g id="node15" class="node">
<title>CommonModule</title>
<polygon fill="#8dd3c7" stroke="black" points="2390.67,-122 2387.67,-126 2366.67,-126 2363.67,-122 2279.33,-122 2279.33,-86 2390.67,-86 2390.67,-122"/>
<text text-anchor="middle" x="2335" y="-99.8" font-family="Times,serif" font-size="14.00">CommonModule</text>
</g>
<!-- CommonModule&#45;&gt;DefaultModule -->
<g id="edge14" class="edge">
<title>CommonModule&#45;&gt;DefaultModule</title>
<path fill="none" stroke="black" d="M2316.39,-122.49C2316.39,-134.14 2316.39,-147 2316.39,-147 2316.39,-147 1019.91,-147 1019.91,-147 1019.91,-147 1019.91,-151.96 1019.91,-151.96"/>
<polygon fill="black" stroke="black" points="1016.41,-151.96 1019.91,-161.96 1023.41,-151.96 1016.41,-151.96"/>
</g>
<!-- CommonModule&#45;&gt;SharedModule -->
<g id="edge31" class="edge">
<title>CommonModule&#45;&gt;SharedModule</title>
<path fill="none" stroke="black" d="M2353.61,-122.01C2353.61,-144.49 2353.61,-180 2353.61,-180 2353.61,-180 2833.7,-180 2833.7,-180"/>
<polygon fill="black" stroke="black" points="2833.7,-183.5 2843.7,-180 2833.7,-176.5 2833.7,-183.5"/>
</g>
<!-- RouterModule -->
<g id="node16" class="node">
<title>RouterModule</title>
<polygon fill="#8dd3c7" stroke="black" points="2260.65,-122 2257.65,-126 2236.65,-126 2233.65,-122 2163.35,-122 2163.35,-86 2260.65,-86 2260.65,-122"/>
<text text-anchor="middle" x="2212" y="-99.8" font-family="Times,serif" font-size="14.00">RouterModule</text>
</g>
<!-- RouterModule&#45;&gt;DefaultModule -->
<g id="edge15" class="edge">
<title>RouterModule&#45;&gt;DefaultModule</title>
<path fill="none" stroke="black" d="M2195.72,-122.13C2195.72,-132.71 2195.72,-144 2195.72,-144 2195.72,-144 1013.94,-144 1013.94,-144 1013.94,-144 1013.94,-151.58 1013.94,-151.58"/>
<polygon fill="black" stroke="black" points="1010.44,-151.58 1013.94,-161.58 1017.44,-151.58 1010.44,-151.58"/>
</g>
<!-- RouterModule&#45;&gt;SharedModule -->
<g id="edge43" class="edge">
<title>RouterModule&#45;&gt;SharedModule</title>
<path fill="none" stroke="black" d="M2228.28,-122.38C2228.28,-146.28 2228.28,-185 2228.28,-185 2228.28,-185 2833.58,-185 2833.58,-185"/>
<polygon fill="black" stroke="black" points="2833.58,-188.5 2843.58,-185 2833.58,-181.5 2833.58,-188.5"/>
</g>
<!-- SharedModule&#45;&gt;DefaultModule -->
<g id="edge16" class="edge">
<title>SharedModule&#45;&gt;DefaultModule</title>
<path fill="none" stroke="black" d="M2893,-198.04C2893,-205.75 2893,-213 2893,-213 2893,-213 999,-213 999,-213 999,-213 999,-208.04 999,-208.04"/>
<polygon fill="black" stroke="black" points="1002.5,-208.04 999,-198.04 995.5,-208.04 1002.5,-208.04"/>
</g>
<!-- HeaderComponent  -->
<g id="node38" class="node">
<title>HeaderComponent </title>
<polygon fill="#fb8072" stroke="black" points="3867.74,-122 3742.26,-122 3742.26,-86 3867.74,-86 3867.74,-122"/>
<text text-anchor="middle" x="3805" y="-99.8" font-family="Times,serif" font-size="14.00">HeaderComponent </text>
</g>
<!-- SharedModule&#45;&gt;HeaderComponent  -->
<g id="edge45" class="edge">
<title>SharedModule&#45;&gt;HeaderComponent </title>
<path fill="none" stroke="black" stroke-dasharray="5,2" d="M2942.36,-173C3132.23,-173 3805,-173 3805,-173 3805,-173 3805,-132.13 3805,-132.13"/>
<polygon fill="black" stroke="black" points="3808.5,-132.13 3805,-122.13 3801.5,-132.13 3808.5,-132.13"/>
</g>
<!-- SidebarComponent  -->
<g id="node39" class="node">
<title>SidebarComponent </title>
<polygon fill="#fb8072" stroke="black" points="3724.6,-122 3597.4,-122 3597.4,-86 3724.6,-86 3724.6,-122"/>
<text text-anchor="middle" x="3661" y="-99.8" font-family="Times,serif" font-size="14.00">SidebarComponent </text>
</g>
<!-- SharedModule&#45;&gt;SidebarComponent  -->
<g id="edge46" class="edge">
<title>SharedModule&#45;&gt;SidebarComponent </title>
<path fill="none" stroke="black" stroke-dasharray="5,2" d="M2942.5,-171C3112.35,-171 3661,-171 3661,-171 3661,-171 3661,-132.31 3661,-132.31"/>
<polygon fill="black" stroke="black" points="3664.5,-132.31 3661,-122.31 3657.5,-132.31 3664.5,-132.31"/>
</g>
<!-- FooterComponent  -->
<g id="node40" class="node">
<title>FooterComponent </title>
<polygon fill="#fb8072" stroke="black" points="3579.88,-122 3458.12,-122 3458.12,-86 3579.88,-86 3579.88,-122"/>
<text text-anchor="middle" x="3519" y="-99.8" font-family="Times,serif" font-size="14.00">FooterComponent </text>
</g>
<!-- SharedModule&#45;&gt;FooterComponent  -->
<g id="edge47" class="edge">
<title>SharedModule&#45;&gt;FooterComponent </title>
<path fill="none" stroke="black" stroke-dasharray="5,2" d="M2942.38,-170C3090.2,-170 3519,-170 3519,-170 3519,-170 3519,-132.03 3519,-132.03"/>
<polygon fill="black" stroke="black" points="3522.5,-132.03 3519,-122.03 3515.5,-132.03 3522.5,-132.03"/>
</g>
<!-- ProgressSpinnerComponent  -->
<g id="node41" class="node">
<title>ProgressSpinnerComponent </title>
<polygon fill="#fb8072" stroke="black" points="3440.09,-122 3263.91,-122 3263.91,-86 3440.09,-86 3440.09,-122"/>
<text text-anchor="middle" x="3352" y="-99.8" font-family="Times,serif" font-size="14.00">ProgressSpinnerComponent </text>
</g>
<!-- SharedModule&#45;&gt;ProgressSpinnerComponent  -->
<g id="edge48" class="edge">
<title>SharedModule&#45;&gt;ProgressSpinnerComponent </title>
<path fill="none" stroke="black" stroke-dasharray="5,2" d="M2942.56,-168C3061.24,-168 3352,-168 3352,-168 3352,-168 3352,-132.17 3352,-132.17"/>
<polygon fill="black" stroke="black" points="3355.5,-132.17 3352,-122.17 3348.5,-132.17 3355.5,-132.17"/>
</g>
<!-- CardComponent  -->
<g id="node42" class="node">
<title>CardComponent </title>
<polygon fill="#fb8072" stroke="black" points="3246.04,-122 3133.96,-122 3133.96,-86 3246.04,-86 3246.04,-122"/>
<text text-anchor="middle" x="3190" y="-99.8" font-family="Times,serif" font-size="14.00">CardComponent </text>
</g>
<!-- SharedModule&#45;&gt;CardComponent  -->
<g id="edge49" class="edge">
<title>SharedModule&#45;&gt;CardComponent </title>
<path fill="none" stroke="black" stroke-dasharray="5,2" d="M2942.38,-166C3026.83,-166 3190,-166 3190,-166 3190,-166 3190,-132.27 3190,-132.27"/>
<polygon fill="black" stroke="black" points="3193.5,-132.27 3190,-122.27 3186.5,-132.27 3193.5,-132.27"/>
</g>
<!-- CarasoulComponent  -->
<g id="node43" class="node">
<title>CarasoulComponent </title>
<polygon fill="#fb8072" stroke="black" points="3116.09,-122 2981.91,-122 2981.91,-86 3116.09,-86 3116.09,-122"/>
<text text-anchor="middle" x="3049" y="-99.8" font-family="Times,serif" font-size="14.00">CarasoulComponent </text>
</g>
<!-- SharedModule&#45;&gt;CarasoulComponent  -->
<g id="edge50" class="edge">
<title>SharedModule&#45;&gt;CarasoulComponent </title>
<path fill="none" stroke="black" stroke-dasharray="5,2" d="M2942.36,-164C2988.06,-164 3049,-164 3049,-164 3049,-164 3049,-132 3049,-132"/>
<polygon fill="black" stroke="black" points="3052.5,-132 3049,-122 3045.5,-132 3052.5,-132"/>
</g>
<!-- MatSidenavModule -->
<g id="node18" class="node">
<title>MatSidenavModule</title>
<polygon fill="#8dd3c7" stroke="black" points="2941.7,-122 2938.7,-126 2917.7,-126 2914.7,-122 2814.3,-122 2814.3,-86 2941.7,-86 2941.7,-122"/>
<text text-anchor="middle" x="2878" y="-99.8" font-family="Times,serif" font-size="14.00">MatSidenavModule</text>
</g>
<!-- MatSidenavModule&#45;&gt;DefaultModule -->
<g id="edge17" class="edge">
<title>MatSidenavModule&#45;&gt;DefaultModule</title>
<path fill="none" stroke="black" d="M2829.09,-122.01C2829.09,-138.05 2829.09,-159 2829.09,-159 2829.09,-159 1043.79,-159 1043.79,-159 1043.79,-159 1043.79,-159.29 1043.79,-159.29"/>
<polygon fill="black" stroke="black" points="1040.29,-151.92 1043.79,-161.92 1047.29,-151.92 1040.29,-151.92"/>
</g>
<!-- MatSidenavModule&#45;&gt;SharedModule -->
<g id="edge35" class="edge">
<title>MatSidenavModule&#45;&gt;SharedModule</title>
<path fill="none" stroke="black" d="M2892.69,-122.01C2892.69,-122.01 2892.69,-151.85 2892.69,-151.85"/>
<polygon fill="black" stroke="black" points="2889.2,-151.85 2892.69,-161.85 2896.2,-151.85 2889.2,-151.85"/>
</g>
<!-- MatPaginatorModule -->
<g id="node19" class="node">
<title>MatPaginatorModule</title>
<polygon fill="#8dd3c7" stroke="black" points="2796.75,-122 2793.75,-126 2772.75,-126 2769.75,-122 2661.25,-122 2661.25,-86 2796.75,-86 2796.75,-122"/>
<text text-anchor="middle" x="2729" y="-99.8" font-family="Times,serif" font-size="14.00">MatPaginatorModule</text>
</g>
<!-- MatPaginatorModule&#45;&gt;DefaultModule -->
<g id="edge18" class="edge">
<title>MatPaginatorModule&#45;&gt;DefaultModule</title>
<path fill="none" stroke="black" d="M2706.37,-122.19C2706.37,-137.18 2706.37,-156 2706.37,-156 2706.37,-156 1037.82,-156 1037.82,-156 1037.82,-156 1037.82,-156.58 1037.82,-156.58"/>
<polygon fill="black" stroke="black" points="1034.32,-151.81 1037.82,-161.81 1041.32,-151.81 1034.32,-151.81"/>
</g>
<!-- MatPaginatorModule&#45;&gt;SharedModule -->
<g id="edge41" class="edge">
<title>MatPaginatorModule&#45;&gt;SharedModule</title>
<path fill="none" stroke="black" d="M2751.63,-122.22C2751.63,-140.83 2751.63,-167 2751.63,-167 2751.63,-167 2833.55,-167 2833.55,-167"/>
<polygon fill="black" stroke="black" points="2833.55,-170.5 2843.55,-167 2833.55,-163.5 2833.55,-170.5"/>
</g>
<!-- MatGridListModule -->
<g id="node20" class="node">
<title>MatGridListModule</title>
<polygon fill="#8dd3c7" stroke="black" points="2144.54,-122 2141.54,-126 2120.54,-126 2117.54,-122 2015.46,-122 2015.46,-86 2144.54,-86 2144.54,-122"/>
<text text-anchor="middle" x="2080" y="-99.8" font-family="Times,serif" font-size="14.00">MatGridListModule</text>
</g>
<!-- MatGridListModule&#45;&gt;DefaultModule -->
<g id="edge19" class="edge">
<title>MatGridListModule&#45;&gt;DefaultModule</title>
<path fill="none" stroke="black" d="M2080,-122.07C2080,-131.46 2080,-141 2080,-141 2080,-141 1007.97,-141 1007.97,-141 1007.97,-141 1007.97,-151.87 1007.97,-151.87"/>
<polygon fill="black" stroke="black" points="1004.47,-151.87 1007.97,-161.87 1011.47,-151.87 1004.47,-151.87"/>
</g>
<!-- MatCardModule -->
<g id="node21" class="node">
<title>MatCardModule</title>
<polygon fill="#8dd3c7" stroke="black" points="2642.81,-122 2639.81,-126 2618.81,-126 2615.81,-122 2533.19,-122 2533.19,-86 2642.81,-86 2642.81,-122"/>
<text text-anchor="middle" x="2588" y="-99.8" font-family="Times,serif" font-size="14.00">MatCardModule</text>
</g>
<!-- MatCardModule&#45;&gt;DefaultModule -->
<g id="edge20" class="edge">
<title>MatCardModule&#45;&gt;DefaultModule</title>
<path fill="none" stroke="black" d="M2569.78,-122.25C2569.78,-136.18 2569.78,-153 2569.78,-153 2569.78,-153 1031.85,-153 1031.85,-153 1031.85,-153 1031.85,-153.88 1031.85,-153.88"/>
<polygon fill="black" stroke="black" points="1028.35,-151.84 1031.85,-161.84 1035.35,-151.84 1028.35,-151.84"/>
</g>
<!-- MatCardModule&#45;&gt;SharedModule -->
<g id="edge40" class="edge">
<title>MatCardModule&#45;&gt;SharedModule</title>
<path fill="none" stroke="black" d="M2606.22,-122.31C2606.22,-142.15 2606.22,-171 2606.22,-171 2606.22,-171 2833.7,-171 2833.7,-171"/>
<polygon fill="black" stroke="black" points="2833.7,-174.5 2843.7,-171 2833.7,-167.5 2833.7,-174.5"/>
</g>
<!-- MatIconModule -->
<g id="node22" class="node">
<title>MatIconModule</title>
<polygon fill="#8dd3c7" stroke="black" points="2515.47,-122 2512.47,-126 2491.47,-126 2488.47,-122 2408.53,-122 2408.53,-86 2515.47,-86 2515.47,-122"/>
<text text-anchor="middle" x="2462" y="-99.8" font-family="Times,serif" font-size="14.00">MatIconModule</text>
</g>
<!-- MatIconModule&#45;&gt;DefaultModule -->
<g id="edge21" class="edge">
<title>MatIconModule&#45;&gt;DefaultModule</title>
<path fill="none" stroke="black" d="M2444.17,-122.18C2444.17,-135.04 2444.17,-150 2444.17,-150 2444.17,-150 1025.88,-150 1025.88,-150 1025.88,-150 1025.88,-151.86 1025.88,-151.86"/>
<polygon fill="black" stroke="black" points="1022.38,-151.86 1025.88,-161.86 1029.38,-151.86 1022.38,-151.86"/>
</g>
<!-- MatIconModule&#45;&gt;SharedModule -->
<g id="edge36" class="edge">
<title>MatIconModule&#45;&gt;SharedModule</title>
<path fill="none" stroke="black" d="M2479.83,-122.17C2479.83,-143.5 2479.83,-176 2479.83,-176 2479.83,-176 2833.57,-176 2833.57,-176"/>
<polygon fill="black" stroke="black" points="2833.57,-179.5 2843.57,-176 2833.57,-172.5 2833.57,-179.5"/>
</g>
<!-- HackernewsService -->
<g id="node23" class="node">
<title>HackernewsService</title>
<ellipse fill="#fdb462" stroke="black" cx="1729" cy="-104" rx="87.92" ry="18"/>
<text text-anchor="middle" x="1729" y="-99.8" font-family="Times,serif" font-size="14.00">HackernewsService</text>
</g>
<!-- HackernewsService&#45;&gt;DefaultModule -->
<g id="edge23" class="edge">
<title>HackernewsService&#45;&gt;DefaultModule</title>
<path fill="none" stroke="black" d="M1729,-122.03C1729,-128.85 1729,-135 1729,-135 1729,-135 996.03,-135 996.03,-135 996.03,-135 996.03,-151.96 996.03,-151.96"/>
<polygon fill="black" stroke="black" points="992.53,-151.96 996.03,-161.96 999.53,-151.96 992.53,-151.96"/>
</g>
<!-- LocaldataService -->
<g id="node24" class="node">
<title>LocaldataService</title>
<ellipse fill="#fdb462" stroke="black" cx="1913" cy="-104" rx="78.12" ry="18"/>
<text text-anchor="middle" x="1913" y="-99.8" font-family="Times,serif" font-size="14.00">LocaldataService</text>
</g>
<!-- LocaldataService&#45;&gt;DefaultModule -->
<g id="edge24" class="edge">
<title>LocaldataService&#45;&gt;DefaultModule</title>
<path fill="none" stroke="black" d="M1886.98,-121C1886.98,-129.5 1886.98,-138 1886.98,-138 1886.98,-138 1002,-138 1002,-138 1002,-138 1002,-151.94 1002,-151.94"/>
<polygon fill="black" stroke="black" points="998.5,-151.94 1002,-161.94 1005.5,-151.94 998.5,-151.94"/>
</g>
<!-- LocaldataService&#45;&gt;SharedModule -->
<g id="edge51" class="edge">
<title>LocaldataService&#45;&gt;SharedModule</title>
<path fill="none" stroke="black" d="M1939.02,-121.2C1939.02,-146.04 1939.02,-189 1939.02,-189 1939.02,-189 2833.72,-189 2833.72,-189"/>
<polygon fill="black" stroke="black" points="2833.72,-192.5 2843.72,-189 2833.72,-185.5 2833.72,-192.5"/>
</g>
<!-- HeaderComponent -->
<g id="node25" class="node">
<title>HeaderComponent</title>
<polygon fill="#ffffb3" stroke="black" points="5767.74,-122 5646.26,-122 5646.26,-86 5767.74,-86 5767.74,-122"/>
<text text-anchor="middle" x="5707" y="-99.8" font-family="Times,serif" font-size="14.00">HeaderComponent</text>
</g>
<!-- HeaderComponent&#45;&gt;SharedModule -->
<g id="edge25" class="edge">
<title>HeaderComponent&#45;&gt;SharedModule</title>
<path fill="none" stroke="black" d="M5707,-122.37C5707,-149.48 5707,-197 5707,-197 5707,-197 2952.44,-197 2952.44,-197"/>
<polygon fill="black" stroke="black" points="2952.44,-193.5 2942.44,-197 2952.44,-200.5 2952.44,-193.5"/>
</g>
<!-- SidebarComponent -->
<g id="node26" class="node">
<title>SidebarComponent</title>
<polygon fill="#ffffb3" stroke="black" points="5628.1,-122 5503.9,-122 5503.9,-86 5628.1,-86 5628.1,-122"/>
<text text-anchor="middle" x="5566" y="-99.8" font-family="Times,serif" font-size="14.00">SidebarComponent</text>
</g>
<!-- SidebarComponent&#45;&gt;SharedModule -->
<g id="edge26" class="edge">
<title>SidebarComponent&#45;&gt;SharedModule</title>
<path fill="none" stroke="black" d="M5566,-122.42C5566,-149.01 5566,-195 5566,-195 5566,-195 2952.26,-195 2952.26,-195"/>
<polygon fill="black" stroke="black" points="2952.26,-191.5 2942.26,-195 2952.26,-198.5 2952.26,-191.5"/>
</g>
<!-- FooterComponent -->
<g id="node27" class="node">
<title>FooterComponent</title>
<polygon fill="#ffffb3" stroke="black" points="5485.88,-122 5368.12,-122 5368.12,-86 5485.88,-86 5485.88,-122"/>
<text text-anchor="middle" x="5427" y="-99.8" font-family="Times,serif" font-size="14.00">FooterComponent</text>
</g>
<!-- FooterComponent&#45;&gt;SharedModule -->
<g id="edge27" class="edge">
<title>FooterComponent&#45;&gt;SharedModule</title>
<path fill="none" stroke="black" d="M5427,-122.01C5427,-148.02 5427,-193 5427,-193 5427,-193 2952.48,-193 2952.48,-193"/>
<polygon fill="black" stroke="black" points="2952.48,-189.5 2942.48,-193 2952.48,-196.5 2952.48,-189.5"/>
</g>
<!-- ProgressSpinnerComponent -->
<g id="node28" class="node">
<title>ProgressSpinnerComponent</title>
<polygon fill="#ffffb3" stroke="black" points="5350.59,-122 5177.41,-122 5177.41,-86 5350.59,-86 5350.59,-122"/>
<text text-anchor="middle" x="5264" y="-99.8" font-family="Times,serif" font-size="14.00">ProgressSpinnerComponent</text>
</g>
<!-- ProgressSpinnerComponent&#45;&gt;SharedModule -->
<g id="edge28" class="edge">
<title>ProgressSpinnerComponent&#45;&gt;SharedModule</title>
<path fill="none" stroke="black" d="M5264,-122.03C5264,-147.51 5264,-191 5264,-191 5264,-191 2952.25,-191 2952.25,-191"/>
<polygon fill="black" stroke="black" points="2952.25,-187.5 2942.25,-191 2952.25,-194.5 2952.25,-187.5"/>
</g>
<!-- CardComponent -->
<g id="node29" class="node">
<title>CardComponent</title>
<polygon fill="#ffffb3" stroke="black" points="5159.05,-122 5050.95,-122 5050.95,-86 5159.05,-86 5159.05,-122"/>
<text text-anchor="middle" x="5105" y="-99.8" font-family="Times,serif" font-size="14.00">CardComponent</text>
</g>
<!-- CardComponent&#45;&gt;SharedModule -->
<g id="edge29" class="edge">
<title>CardComponent&#45;&gt;SharedModule</title>
<path fill="none" stroke="black" d="M5105,-122.03C5105,-146.98 5105,-189 5105,-189 5105,-189 2952.3,-189 2952.3,-189"/>
<polygon fill="black" stroke="black" points="2952.3,-185.5 2942.3,-189 2952.3,-192.5 2952.3,-185.5"/>
</g>
<!-- CarasoulComponent -->
<g id="node30" class="node">
<title>CarasoulComponent</title>
<polygon fill="#ffffb3" stroke="black" points="5032.59,-122 4901.41,-122 4901.41,-86 5032.59,-86 5032.59,-122"/>
<text text-anchor="middle" x="4967" y="-99.8" font-family="Times,serif" font-size="14.00">CarasoulComponent</text>
</g>
<!-- CarasoulComponent&#45;&gt;SharedModule -->
<g id="edge30" class="edge">
<title>CarasoulComponent&#45;&gt;SharedModule</title>
<path fill="none" stroke="black" d="M4967,-122.23C4967,-146.93 4967,-188 4967,-188 4967,-188 2952.22,-188 2952.22,-188"/>
<polygon fill="black" stroke="black" points="2952.22,-184.5 2942.22,-188 2952.22,-191.5 2952.22,-184.5"/>
</g>
<!-- MatDividerModule -->
<g id="node31" class="node">
<title>MatDividerModule</title>
<polygon fill="#8dd3c7" stroke="black" points="4546.36,-122 4543.36,-126 4522.36,-126 4519.36,-122 4421.64,-122 4421.64,-86 4546.36,-86 4546.36,-122"/>
<text text-anchor="middle" x="4484" y="-99.8" font-family="Times,serif" font-size="14.00">MatDividerModule</text>
</g>
<!-- MatDividerModule&#45;&gt;SharedModule -->
<g id="edge32" class="edge">
<title>MatDividerModule&#45;&gt;SharedModule</title>
<path fill="none" stroke="black" d="M4484,-122.09C4484,-145.13 4484,-182 4484,-182 4484,-182 2952.36,-182 2952.36,-182"/>
<polygon fill="black" stroke="black" points="2952.36,-178.5 2942.36,-182 2952.36,-185.5 2952.36,-178.5"/>
</g>
<!-- FlexLayoutModule -->
<g id="node32" class="node">
<title>FlexLayoutModule</title>
<polygon fill="#8dd3c7" stroke="black" points="4404.1,-122 4401.1,-126 4380.1,-126 4377.1,-122 4279.9,-122 4279.9,-86 4404.1,-86 4404.1,-122"/>
<text text-anchor="middle" x="4342" y="-99.8" font-family="Times,serif" font-size="14.00">FlexLayoutModule</text>
</g>
<!-- FlexLayoutModule&#45;&gt;SharedModule -->
<g id="edge33" class="edge">
<title>FlexLayoutModule&#45;&gt;SharedModule</title>
<path fill="none" stroke="black" d="M4342,-122.01C4342,-144.49 4342,-180 4342,-180 4342,-180 2952.46,-180 2952.46,-180"/>
<polygon fill="black" stroke="black" points="2952.46,-176.5 2942.46,-180 2952.46,-183.5 2952.46,-176.5"/>
</g>
<!-- MatToolbarModule -->
<g id="node33" class="node">
<title>MatToolbarModule</title>
<polygon fill="#8dd3c7" stroke="black" points="4262.42,-122 4259.42,-126 4238.42,-126 4235.42,-122 4135.58,-122 4135.58,-86 4262.42,-86 4262.42,-122"/>
<text text-anchor="middle" x="4199" y="-99.8" font-family="Times,serif" font-size="14.00">MatToolbarModule</text>
</g>
<!-- MatToolbarModule&#45;&gt;SharedModule -->
<g id="edge34" class="edge">
<title>MatToolbarModule&#45;&gt;SharedModule</title>
<path fill="none" stroke="black" d="M4199,-122.16C4199,-144.35 4199,-179 4199,-179 4199,-179 2952.6,-179 2952.6,-179"/>
<polygon fill="black" stroke="black" points="2952.6,-175.5 2942.6,-179 2952.6,-182.5 2952.6,-175.5"/>
</g>
<!-- MatListModule -->
<g id="node34" class="node">
<title>MatListModule</title>
<polygon fill="#8dd3c7" stroke="black" points="4117.88,-122 4114.88,-126 4093.88,-126 4090.88,-122 4014.12,-122 4014.12,-86 4117.88,-86 4117.88,-122"/>
<text text-anchor="middle" x="4066" y="-99.8" font-family="Times,serif" font-size="14.00">MatListModule</text>
</g>
<!-- MatListModule&#45;&gt;SharedModule -->
<g id="edge37" class="edge">
<title>MatListModule&#45;&gt;SharedModule</title>
<path fill="none" stroke="black" d="M4066,-122.04C4066,-143.66 4066,-177 4066,-177 4066,-177 2952.28,-177 2952.28,-177"/>
<polygon fill="black" stroke="black" points="2952.28,-173.5 2942.28,-177 2952.28,-180.5 2952.28,-173.5"/>
</g>
<!-- OverlayModule -->
<g id="node35" class="node">
<title>OverlayModule</title>
<polygon fill="#8dd3c7" stroke="black" points="3996.14,-122 3993.14,-126 3972.14,-126 3969.14,-122 3891.86,-122 3891.86,-86 3996.14,-86 3996.14,-122"/>
<text text-anchor="middle" x="3944" y="-99.8" font-family="Times,serif" font-size="14.00">OverlayModule</text>
</g>
<!-- OverlayModule&#45;&gt;SharedModule -->
<g id="edge38" class="edge">
<title>OverlayModule&#45;&gt;SharedModule</title>
<path fill="none" stroke="black" d="M3944,-122.28C3944,-143.32 3944,-175 3944,-175 3944,-175 2952.28,-175 2952.28,-175"/>
<polygon fill="black" stroke="black" points="2952.28,-171.5 2942.28,-175 2952.28,-178.5 2952.28,-171.5"/>
</g>
<!-- MatProgressSpinnerModule -->
<g id="node36" class="node">
<title>MatProgressSpinnerModule</title>
<polygon fill="#8dd3c7" stroke="black" points="4876.86,-122 4873.86,-126 4852.86,-126 4849.86,-122 4703.14,-122 4703.14,-86 4876.86,-86 4876.86,-122"/>
<text text-anchor="middle" x="4790" y="-99.8" font-family="Times,serif" font-size="14.00">MatProgressSpinnerModule</text>
</g>
<!-- MatProgressSpinnerModule&#45;&gt;SharedModule -->
<g id="edge39" class="edge">
<title>MatProgressSpinnerModule&#45;&gt;SharedModule</title>
<path fill="none" stroke="black" d="M4790,-122.2C4790,-146.36 4790,-186 4790,-186 4790,-186 2952.28,-186 2952.28,-186"/>
<polygon fill="black" stroke="black" points="2952.28,-182.5 2942.28,-186 2952.28,-189.5 2952.28,-182.5"/>
</g>
<!-- MatButtonModule -->
<g id="node37" class="node">
<title>MatButtonModule</title>
<polygon fill="#8dd3c7" stroke="black" points="4685.22,-122 4682.22,-126 4661.22,-126 4658.22,-122 4564.78,-122 4564.78,-86 4685.22,-86 4685.22,-122"/>
<text text-anchor="middle" x="4625" y="-99.8" font-family="Times,serif" font-size="14.00">MatButtonModule</text>
</g>
<!-- MatButtonModule&#45;&gt;SharedModule -->
<g id="edge42" class="edge">
<title>MatButtonModule&#45;&gt;SharedModule</title>
<path fill="none" stroke="black" d="M4625,-122.15C4625,-145.76 4625,-184 4625,-184 4625,-184 2952.51,-184 2952.51,-184"/>
<polygon fill="black" stroke="black" points="2952.51,-180.5 2942.51,-184 2952.51,-187.5 2952.51,-180.5"/>
</g>
</g>
</svg>
